<?xml version="1.0" encoding="UTF-8"?>
<svg version="1.1" xmlns="http://www.w3.org/2000/svg" width="989" height="252">
<path d="M0 0 C1.53545103 1.31647329 3.05643673 2.65000547 4.5625 4 C5.82126953 5.08087891 5.82126953 5.08087891 7.10546875 6.18359375 C27.28171975 23.79584311 37.77371368 45.46221473 43.6796875 71.25 C43.85097168 71.99765625 44.02225586 72.7453125 44.19873047 73.515625 C44.66400858 76.6932559 44.61773307 79.79354897 44.5625 83 C45.47539795 82.98428955 46.3882959 82.9685791 47.32885742 82.95239258 C50.7301201 82.9011303 54.13096963 82.86358561 57.5324707 82.83520508 C59.00193782 82.82015934 60.47136034 82.79971762 61.94067383 82.77368164 C64.0582177 82.73711045 66.17516565 82.72023199 68.29296875 82.70703125 C69.56551514 82.6913208 70.83806152 82.67561035 72.14916992 82.65942383 C75.82858354 83.02654936 77.69377692 83.69567025 80.5625 86 C81.625 89.4375 81.625 89.4375 81.5625 93 C80.03417969 95.19824219 80.03417969 95.19824219 77.5625 97 C74.88077524 97.34959406 72.62312042 97.46923774 69.953125 97.390625 C68.86291046 97.38213531 68.86291046 97.38213531 67.75067139 97.37347412 C65.43726755 97.35114553 63.1254328 97.30096048 60.8125 97.25 C59.24090784 97.22993023 57.66929132 97.21168029 56.09765625 97.1953125 C52.25200283 97.15129293 48.40751711 97.08229375 44.5625 97 C44.57925781 98.22219238 44.59601563 99.44438477 44.61328125 100.70361328 C44.59601799 126.86968773 29.23056647 151.89769534 11.5625 170 C10.69044922 170.96486328 10.69044922 170.96486328 9.80078125 171.94921875 C-3.34055356 186.14980473 -22.8843994 195.46871356 -41.4375 200 C-42.27410156 200.21140625 -43.11070312 200.4228125 -43.97265625 200.640625 C-71.73864883 206.64872231 -102.17437702 201.70210843 -126.37646484 186.80664062 C-153.30215188 169.26066068 -172.0610338 143.46827405 -178.84887695 111.8996582 C-179.87989401 106.85627164 -180.58668358 102.15861132 -180.4375 97 C-181.66726562 97.05220703 -181.66726562 97.05220703 -182.921875 97.10546875 C-183.99953125 97.13253906 -185.0771875 97.15960938 -186.1875 97.1875 C-187.78851563 97.23970703 -187.78851563 97.23970703 -189.421875 97.29296875 C-192.78253863 96.96647941 -194.11578434 96.42145523 -196.4375 94 C-197.17992424 88.06060606 -197.17992424 88.06060606 -195.125 85.125 C-191.86847457 82.95398305 -189.03979566 82.88828187 -185.25 82.9375 C-183.89841797 82.95103516 -183.89841797 82.95103516 -182.51953125 82.96484375 C-181.83246094 82.97644531 -181.14539063 82.98804687 -180.4375 83 C-180.37433594 82.01644531 -180.31117188 81.03289062 -180.24609375 80.01953125 C-177.85870766 50.66724757 -163.64907776 23.49436466 -141.359375 4.296875 C-100.82400423 -27.56782823 -42.04735728 -33.12221069 0 0 Z " fill="#FEE9EC" transform="translate(211.4375,37)"/>
<path d="M0 0 C-0.66 2.97 -1.32 5.94 -2 9 C-0.73542969 9.07347656 -0.73542969 9.07347656 0.5546875 9.1484375 C2.19824219 9.26058594 2.19824219 9.26058594 3.875 9.375 C4.96554688 9.44460937 6.05609375 9.51421875 7.1796875 9.5859375 C10 10 10 10 12 12 C12.125 14.4375 12.125 14.4375 11 17 C9.07190376 17.97749995 7.12446912 18.60344376 5.0703125 19.2734375 C2.01676367 20.3450603 0.19088721 21.61579921 -2 24 C-2.98118472 26.67642533 -3.48228622 29.17610666 -4 32 C-3.319375 32.061875 -2.63875 32.12375 -1.9375 32.1875 C3.43823548 33.67440556 6.99862601 36.74186345 10.4375 41.0625 C12 44 12 44 12 48 C10.02 48 8.04 48 6 48 C6 48.66 6 49.32 6 50 C9.3 49.67 12.6 49.34 16 49 C16.61750366 60.62965235 15.03435082 70.80190362 12 82 C11.75862305 82.8981543 11.51724609 83.79630859 11.26855469 84.72167969 C6.8148819 100.97338378 0.59268946 115.98281358 -7 131 C-7.66 131 -8.32 131 -9 131 C-19.51144118 109.61529948 -19.51144118 109.61529948 -23.10986328 98.71289062 C-23.65938501 97.11198159 -24.32024252 95.55010117 -25 94 C-25.99 93.67 -26.98 93.34 -28 93 C-28.185625 94.6396875 -28.185625 94.6396875 -28.375 96.3125 C-29 100 -29 100 -31 103 C-31.66 103 -32.32 103 -33 103 C-33.18006592 104.94156982 -33.18006592 104.94156982 -33.36376953 106.92236328 C-33.91049225 111.81802214 -34.95445276 116.4772917 -36.1796875 121.2421875 C-36.39311798 122.09120636 -36.60654846 122.94022522 -36.82644653 123.81497192 C-37.50376027 126.50308302 -38.18934793 129.1890052 -38.875 131.875 C-39.32734368 133.66783744 -39.7791707 135.46080532 -40.23046875 137.25390625 C-41.28905646 141.45189449 -42.36406052 145.64542612 -43.44665527 149.83728027 C-43.93757955 151.75603284 -44.41190279 153.67901589 -44.88378906 155.60253906 C-45.25455566 157.07158691 -45.25455566 157.07158691 -45.6328125 158.5703125 C-45.8302002 159.37484863 -46.02758789 160.17938477 -46.23095703 161.00830078 C-47.13315286 163.34484476 -47.97775214 164.52037964 -50 166 C-53.6875 165.6875 -53.6875 165.6875 -57 165 C-59.20098149 159.50064625 -60.732525 154.25190471 -61.8125 148.4375 C-62.05625366 147.17631348 -62.05625366 147.17631348 -62.30493164 145.88964844 C-62.67084697 143.99260878 -63.03353042 142.09494383 -63.39355469 140.19677734 C-64.43419331 134.71122096 -65.49346648 129.22925246 -66.55203247 123.74713135 C-66.80874808 122.41707173 -67.06515742 121.08695297 -67.32125854 119.7567749 C-69.75044678 107.14370444 -72.32907476 94.56410404 -75 82 C-78.711422 89.97903078 -82.05923346 98.04343592 -85.22460938 106.25195312 C-85.55654297 107.09822266 -85.88847656 107.94449219 -86.23046875 108.81640625 C-86.52332764 109.57381104 -86.81618652 110.33121582 -87.11791992 111.11157227 C-88 113 -88 113 -90 115 C-92.52938843 115.29866028 -92.52938843 115.29866028 -95.76318359 115.36645508 C-96.97138763 115.39600784 -98.17959167 115.42556061 -99.42440796 115.45600891 C-100.73583771 115.47697128 -102.04726746 115.49793365 -103.3984375 115.51953125 C-104.75363978 115.54586158 -106.10883389 115.57261602 -107.46401978 115.59977722 C-110.30699513 115.65424728 -113.14997687 115.70101624 -115.99316406 115.74291992 C-119.63421838 115.79755656 -123.27437719 115.87505223 -126.91486168 115.95886707 C-129.71484956 116.02013338 -132.51494421 116.06724999 -135.31526566 116.11032677 C-137.30958363 116.14408515 -139.30365881 116.19131463 -141.29769897 116.23872375 C-142.51220734 116.25251572 -143.7267157 116.26630768 -144.97802734 116.28051758 C-146.04677094 116.2989119 -147.11551453 116.31730621 -148.21664429 116.33625793 C-151.40949033 115.95052937 -152.77005284 115.29781548 -155 113 C-155.74242424 107.06060606 -155.74242424 107.06060606 -153.6875 104.125 C-150.43097457 101.95398305 -147.60229566 101.88828187 -143.8125 101.9375 C-142.46091797 101.95103516 -142.46091797 101.95103516 -141.08203125 101.96484375 C-140.39496094 101.97644531 -139.70789063 101.98804687 -139 102 C-138.93683594 101.01644531 -138.87367188 100.03289062 -138.80859375 99.01953125 C-136.42120766 69.66724757 -122.21157776 42.49436466 -99.921875 23.296875 C-72.84942312 2.01532192 -34.12073258 -11.60381189 0 0 Z " fill="#FEE9EC" transform="translate(170,18)"/>
<path d="M0 0 C0.73541016 0.00202423 1.47082031 0.00404846 2.22851562 0.00613403 C2.97939453 0.00517731 3.73027344 0.00422058 4.50390625 0.00323486 C6.09440189 0.00255315 7.6849003 0.00440682 9.27539062 0.00857544 C11.71816217 0.01392386 14.16074984 0.00863019 16.60351562 0.00222778 C18.1451827 0.00288857 19.68684966 0.00416973 21.22851562 0.00613403 C21.96392578 0.0041098 22.69933594 0.00208557 23.45703125 0 C28.61356402 0.02399493 28.61356402 0.02399493 29.72851562 1.13894653 C29.85073088 2.58078946 29.9062432 4.02837797 29.93383789 5.47512817 C29.96375572 6.85644676 29.96375572 6.85644676 29.99427795 8.26567078 C30.01099045 9.26670334 30.02770294 10.2677359 30.04492188 11.29910278 C30.06570297 12.3187059 30.08648407 13.33830902 30.1078949 14.3888092 C30.17350414 17.65961701 30.23232797 20.9305079 30.29101562 24.20144653 C30.33419004 26.41304381 30.37780396 28.62463256 30.421875 30.83621216 C30.52919702 36.27036804 30.63094186 41.70460735 30.72851562 47.13894653 C31.34249207 46.64999405 31.95646851 46.16104156 32.58905029 45.65727234 C33.80035614 44.70182777 33.80035614 44.70182777 35.03613281 43.7270813 C35.83573425 43.09375381 36.63533569 42.46042633 37.45916748 41.8079071 C44.30275647 36.77488464 53.58311421 37.14717041 61.72851562 38.13894653 C68.08198348 39.88574396 72.87958927 43.18715508 76.44499207 48.76472473 C81.11672152 57.40634401 81.13969345 66.75208192 81.02148438 76.33816528 C81.01723953 77.65436356 81.01299469 78.97056183 81.00862122 80.3266449 C80.99729153 83.78727031 80.96793071 87.24750417 80.93450928 90.70797729 C80.90354847 94.25457369 80.88989527 97.80123666 80.875 101.34793091 C80.84464665 108.27861266 80.78589969 115.20822616 80.72851562 122.13894653 C69.50851562 122.13894653 58.28851563 122.13894653 46.72851562 122.13894653 C46.66792969 118.51539185 46.60734375 114.89183716 46.54492188 111.15847778 C46.48310428 107.64698254 46.41972824 104.13551864 46.35620117 100.62405396 C46.31290353 98.18462923 46.27122479 95.74517522 46.23120117 93.30569458 C46.17337355 89.7981992 46.10971477 86.29085056 46.04492188 82.78347778 C46.02820938 81.69372147 46.01149689 80.60396515 45.99427795 79.48118591 C45.96436012 77.95016487 45.96436012 77.95016487 45.93383789 76.38821411 C45.91052147 75.04585442 45.91052147 75.04585442 45.88673401 73.67637634 C45.72524012 71.08641562 45.29588557 68.66843164 44.72851562 66.13894653 C41.17497634 64.95443344 38.45838085 64.87252759 34.72851562 65.13894653 C32.1125841 66.9700986 31.75862107 68.0486302 30.72851562 71.13894653 C30.61337731 72.81045641 30.55214779 74.48594283 30.52319336 76.16116333 C30.50324814 77.18199509 30.48330292 78.20282684 30.4627533 79.2545929 C30.43768456 80.90471123 30.43768456 80.90471123 30.41210938 82.58816528 C30.39132828 83.71591873 30.37054718 84.84367218 30.34913635 86.00559998 C30.28368715 89.61248613 30.22477719 93.21944582 30.16601562 96.82644653 C30.12282602 99.26981355 30.07921159 101.7131731 30.03515625 104.15652466 C29.92801047 110.15058728 29.82623533 116.14472324 29.72851562 122.13894653 C24.76229213 122.16359751 19.79610396 122.18178302 14.82983398 122.19387817 C13.13907247 122.19891843 11.44831533 122.20575058 9.75756836 122.21438599 C7.33250856 122.2264651 4.90750619 122.23217776 2.48242188 122.23660278 C1.34179039 122.24434471 1.34179039 122.24434471 0.17811584 122.25224304 C-1.63881008 122.25243891 -3.45561565 122.2009193 -5.27148438 122.13894653 C-6.8968882 120.51354271 -6.39750906 118.71488328 -6.39846802 116.46975708 C-6.40128784 115.46012909 -6.40410767 114.4505011 -6.40701294 113.41027832 C-6.40498871 112.29335602 -6.40296448 111.17643372 -6.40087891 110.02566528 C-6.40263123 108.85669708 -6.40438354 107.68772888 -6.40618896 106.4833374 C-6.40984702 103.26854214 -6.40897413 100.05378776 -6.40580988 96.83899307 C-6.40328579 93.4815385 -6.40562395 90.12408675 -6.40719604 86.76663208 C-6.4090176 81.12738552 -6.40661181 75.48815204 -6.40185547 69.84890747 C-6.39641287 63.32044394 -6.39817554 56.79201163 -6.40368187 50.26354885 C-6.40821341 44.66780294 -6.40886335 39.07206646 -6.40624321 33.47631931 C-6.40468065 30.13008169 -6.40448607 26.78385876 -6.40777969 23.43762207 C-6.41030452 19.70913548 -6.40646802 15.98070981 -6.40087891 12.25222778 C-6.40290314 11.13530548 -6.40492737 10.01838318 -6.40701294 8.86761475 C-6.40419312 7.85798676 -6.40137329 6.84835876 -6.39846802 5.80813599 C-6.39809099 4.92543533 -6.39771397 4.04273468 -6.39732552 3.13328552 C-6.13911208 -0.95889871 -3.47784858 0.01618349 0 0 Z " fill="#2C2B2B" transform="translate(443.271484375,73.86105346679688)"/>
<path d="M0 0 C1.06988159 0.11746582 1.06988159 0.11746582 2.16137695 0.23730469 C2.85448975 0.32141602 3.54760254 0.40552734 4.26171875 0.4921875 C4.87362061 0.56550293 5.48552246 0.63881836 6.1159668 0.71435547 C9.23107346 1.29672842 12.26535676 2.25438765 15.3125 3.125 C15.3125 13.685 15.3125 24.245 15.3125 35.125 C6.3125 33.125 6.3125 33.125 2.125 32 C-8.86243388 29.59469486 -19.75616582 30.34138385 -29.4375 36.1875 C-34.52827306 40.09437235 -36.924439 46.19014998 -38.5 52.25 C-39.12065001 61.76663343 -38.56944861 70.23740334 -32.6875 78.125 C-25.87280331 84.78825898 -19.53383533 86.6516178 -10.24609375 87.19921875 C-3.32413351 87.05485295 3.61158692 85.62982529 10.03125 83.01953125 C12.3125 82.125 12.3125 82.125 15.3125 82.125 C15.3125 92.355 15.3125 102.585 15.3125 113.125 C-5.0579182 119.9151394 -27.61119849 121.27271399 -47.7578125 112.83984375 C-59.85638048 106.79055976 -69.03309384 97.35110195 -73.9375 84.75 C-79.68240825 67.49133812 -79.17326176 49.28338892 -71.90625 32.4921875 C-64.42328036 17.957958 -52.43879599 7.92291197 -37.1875 2.25 C-24.87727281 -1.30323131 -12.58829 -1.39854889 0 0 Z " fill="#2C2B2B" transform="translate(412.6875,79.875)"/>
<path d="M0 0 C0.73541016 0.00202423 1.47082031 0.00404846 2.22851562 0.00613403 C2.97939453 0.00517731 3.73027344 0.00422058 4.50390625 0.00323486 C6.09440189 0.00255315 7.6849003 0.00440682 9.27539062 0.00857544 C11.71816217 0.01392386 14.16074984 0.00863019 16.60351562 0.00222778 C18.1451827 0.00288857 19.68684966 0.00416973 21.22851562 0.00613403 C21.96392578 0.0041098 22.69933594 0.00208557 23.45703125 0 C28.61356402 0.02399493 28.61356402 0.02399493 29.72851562 1.13894653 C29.82442762 2.70782288 29.85039559 4.28102446 29.84877014 5.85282898 C29.85014481 6.87231628 29.85151947 7.89180359 29.85293579 8.94218445 C29.84754288 10.63395058 29.84754288 10.63395058 29.84204102 12.3598938 C29.84218704 13.54022186 29.84233307 14.72054993 29.84248352 15.93664551 C29.84190457 19.18236761 29.83687549 22.42804708 29.82990956 25.67376065 C29.82367525 29.06237685 29.82307216 32.45099382 29.82188416 35.83961487 C29.81877107 42.26050458 29.81055799 48.68137734 29.80053467 55.10225958 C29.78937282 62.41048478 29.7838629 69.71871077 29.77883923 77.02694237 C29.76837536 92.06428655 29.75077635 107.10161485 29.72851562 122.13894653 C24.76229213 122.16359751 19.79610396 122.18178302 14.82983398 122.19387817 C13.13907247 122.19891843 11.44831533 122.20575058 9.75756836 122.21438599 C7.33250856 122.2264651 4.90750619 122.23217776 2.48242188 122.23660278 C1.34179039 122.24434471 1.34179039 122.24434471 0.17811584 122.25224304 C-1.63881008 122.25243891 -3.45561565 122.2009193 -5.27148438 122.13894653 C-6.8968882 120.51354271 -6.39750906 118.71488328 -6.39846802 116.46975708 C-6.40128784 115.46012909 -6.40410767 114.4505011 -6.40701294 113.41027832 C-6.40498871 112.29335602 -6.40296448 111.17643372 -6.40087891 110.02566528 C-6.40263123 108.85669708 -6.40438354 107.68772888 -6.40618896 106.4833374 C-6.40984702 103.26854214 -6.40897413 100.05378776 -6.40580988 96.83899307 C-6.40328579 93.4815385 -6.40562395 90.12408675 -6.40719604 86.76663208 C-6.4090176 81.12738552 -6.40661181 75.48815204 -6.40185547 69.84890747 C-6.39641287 63.32044394 -6.39817554 56.79201163 -6.40368187 50.26354885 C-6.40821341 44.66780294 -6.40886335 39.07206646 -6.40624321 33.47631931 C-6.40468065 30.13008169 -6.40448607 26.78385876 -6.40777969 23.43762207 C-6.41030452 19.70913548 -6.40646802 15.98070981 -6.40087891 12.25222778 C-6.40290314 11.13530548 -6.40492737 10.01838318 -6.40701294 8.86761475 C-6.40419312 7.85798676 -6.40137329 6.84835876 -6.39846802 5.80813599 C-6.39809099 4.92543533 -6.39771397 4.04273468 -6.39732552 3.13328552 C-6.13911208 -0.95889871 -3.47784858 0.01618349 0 0 Z " fill="#2F2F2C" transform="translate(586.271484375,73.86105346679688)"/>
<path d="M0 0 C3.0625 0.25 3.0625 0.25 6.0625 2.25 C6.73129272 4.03065491 6.73129272 4.03065491 7.14990234 6.21118164 C7.31388016 7.03207779 7.47785797 7.85297394 7.64680481 8.69874573 C7.8123436 9.5935112 7.97788239 10.48827667 8.1484375 11.41015625 C8.33069382 12.33960556 8.51295013 13.26905487 8.70072937 14.22666931 C9.29144695 17.25312744 9.86464339 20.2826151 10.4375 23.3125 C10.8366433 25.37717887 11.23695311 27.44163256 11.63842773 29.50585938 C12.42788531 33.57076709 13.21144465 37.63674255 13.99072266 41.70361328 C14.88399792 46.34941529 15.81057027 50.98679943 16.76171875 55.62109375 C16.99777832 56.77150146 17.23383789 57.92190918 17.47705078 59.10717773 C17.89610365 61.13975786 18.31749508 63.17185785 18.74169922 65.20336914 C18.92104004 66.08500732 19.10038086 66.96664551 19.28515625 67.875 C19.43734619 68.60976562 19.58953613 69.34453125 19.74633789 70.1015625 C20.10059818 72.50889113 20.11551967 74.82015378 20.0625 77.25 C20.7225 77.25 21.3825 77.25 22.0625 77.25 C22.15789062 76.21230469 22.25328125 75.17460937 22.3515625 74.10546875 C23.14316784 67.79901291 24.83873858 61.70319729 26.4375 55.5625 C26.74171875 54.35271484 27.0459375 53.14292969 27.359375 51.89648438 C27.66101563 50.73052734 27.96265625 49.56457031 28.2734375 48.36328125 C28.54462402 47.30923096 28.81581055 46.25518066 29.09521484 45.16918945 C30.19257404 41.85744692 31.56139667 38.75110333 34.0625 36.25 C36.79781209 35.96207241 38.47493666 35.90556632 40.875 37.3125 C43.20476604 41.11369723 42.19913024 45.5765581 41.34790039 49.7722168 C41.01781982 51.00625244 40.68773926 52.24028809 40.34765625 53.51171875 C39.97717815 54.92604736 39.60758583 56.34060822 39.23876953 57.75537109 C38.94815643 58.85724762 38.94815643 58.85724762 38.65167236 59.98138428 C37.65586592 63.81574971 36.734709 67.66785295 35.80859375 71.51953125 C35.42529339 73.10355512 35.04182893 74.68753929 34.65820312 76.27148438 C34.07622831 78.67781625 33.49475071 81.0842652 32.91430664 83.4909668 C31.80605034 88.08376988 30.68893503 92.67417279 29.55340576 97.26031494 C29.10408783 99.0814408 28.66318484 100.9046375 28.22314453 102.72802734 C27.9754834 103.70852051 27.72782227 104.68901367 27.47265625 105.69921875 C27.26906494 106.52123779 27.06547363 107.34325684 26.85571289 108.19018555 C25.9422595 110.56224041 25.11788579 111.75314628 23.0625 113.25 C19.375 112.9375 19.375 112.9375 16.0625 112.25 C13.86151851 106.75064625 12.329975 101.50190471 11.25 95.6875 C11.00624634 94.42631348 11.00624634 94.42631348 10.75756836 93.13964844 C10.39165303 91.24260878 10.02896958 89.34494383 9.66894531 87.44677734 C8.62830669 81.96122096 7.56903352 76.47925246 6.51046753 70.99713135 C6.25375192 69.66707173 5.99734258 68.33695297 5.74124146 67.0067749 C3.31205322 54.39370444 0.73342524 41.81410404 -1.9375 29.25 C-5.648922 37.22903078 -8.99673346 45.29343592 -12.16210938 53.50195312 C-12.49404297 54.34822266 -12.82597656 55.19449219 -13.16796875 56.06640625 C-13.60725708 57.20251343 -13.60725708 57.20251343 -14.05541992 58.36157227 C-14.9375 60.25 -14.9375 60.25 -16.9375 62.25 C-19.46688843 62.54866028 -19.46688843 62.54866028 -22.70068359 62.61645508 C-23.90888763 62.64600784 -25.11709167 62.67556061 -26.36190796 62.70600891 C-27.67333771 62.72697128 -28.98476746 62.74793365 -30.3359375 62.76953125 C-31.69113978 62.79586158 -33.04633389 62.82261602 -34.40151978 62.84977722 C-37.24449513 62.90424728 -40.08747687 62.95101624 -42.93066406 62.99291992 C-46.57171838 63.04755656 -50.21187719 63.12505223 -53.85236168 63.20886707 C-56.65234956 63.27013338 -59.45244421 63.31724999 -62.25276566 63.36032677 C-64.24708363 63.39408515 -66.24115881 63.44131463 -68.23519897 63.48872375 C-69.44970734 63.50251572 -70.6642157 63.51630768 -71.91552734 63.53051758 C-72.98427094 63.5489119 -74.05301453 63.56730621 -75.15414429 63.58625793 C-78.34699033 63.20052937 -79.70755284 62.54781548 -81.9375 60.25 C-82.67571017 54.3443186 -82.67571017 54.3443186 -80.828125 51.60546875 C-78.09525273 49.64615743 -75.56073886 49.48863471 -72.25 49.0625 C-71.07050781 48.90394531 -69.89101562 48.74539062 -68.67578125 48.58203125 C-67.77214844 48.47246094 -66.86851563 48.36289063 -65.9375 48.25 C-65.6075 48.91 -65.2775 49.57 -64.9375 50.25 C-51.4075 50.25 -37.8775 50.25 -23.9375 50.25 C-23.6075 48.6 -23.2775 46.95 -22.9375 45.25 C-21.97079019 42.60476096 -20.9716164 39.9966293 -19.91796875 37.38671875 C-19.61812576 36.6359053 -19.31828278 35.88509186 -19.00935364 35.11152649 C-18.37510539 33.52639439 -17.73872195 31.94211516 -17.1003418 30.35864258 C-16.13333151 27.95818175 -15.17456767 25.55455057 -14.21679688 23.15039062 C-13.59684732 21.60396887 -12.97641973 20.05773866 -12.35546875 18.51171875 C-12.07301804 17.80311203 -11.79056732 17.09450531 -11.4995575 16.36442566 C-5.0519832 0.42995602 -5.0519832 0.42995602 0 0 Z " fill="#C22D2C" transform="translate(96.9375,70.75)"/>
<path d="M0 0 C0.70174347 -0.00095673 1.40348694 -0.00191345 2.12649536 -0.00289917 C3.61444183 -0.003581 5.10239125 -0.0017265 6.59033203 0.00244141 C8.8662793 0.00777376 11.14202779 0.00250485 13.41796875 -0.00390625 C14.8619796 -0.00324516 16.30599033 -0.00196335 17.75 0 C19.0685498 0.00112793 20.38709961 0.00225586 21.74560547 0.00341797 C25.0078125 0.1328125 25.0078125 0.1328125 28.0078125 1.1328125 C28.03093593 11.67662562 28.04872759 22.22043275 28.05962467 32.76426601 C28.0648535 37.65966624 28.07195114 42.55504918 28.08325195 47.45043945 C28.09408084 52.17069228 28.10008934 56.89092842 28.10268974 61.6111927 C28.10454399 63.41620204 28.10816459 65.22121042 28.11354256 67.02621269 C28.12075302 69.54540894 28.12180344 72.0645354 28.12133789 74.58374023 C28.12493317 75.33755478 28.12852844 76.09136932 28.13223267 76.86802673 C28.12186466 82.01876034 28.12186466 82.01876034 27.0078125 83.1328125 C24.41421928 83.22132779 21.84741559 83.24807195 19.25390625 83.23046875 C18.47845963 83.2290538 17.703013 83.22763885 16.90406799 83.22618103 C14.41777756 83.22056595 11.9315759 83.20801096 9.4453125 83.1953125 C7.76367317 83.19029944 6.08203244 83.1857362 4.40039062 83.18164062 C0.26949684 83.17059163 -3.86133026 83.15331695 -7.9921875 83.1328125 C-8.01531078 72.45861552 -8.03310251 61.78442444 -8.04399967 51.11020756 C-8.04922853 46.15427328 -8.05632624 41.19835608 -8.06762695 36.24243164 C-8.07845572 31.46382414 -8.08446431 26.68523312 -8.08706474 21.9066143 C-8.08891901 20.07927631 -8.09253966 18.25193926 -8.09791756 16.42460823 C-8.10512786 13.87427921 -8.10617845 11.32401913 -8.10571289 8.77368164 C-8.10930817 8.01051636 -8.11290344 7.24735107 -8.11660767 6.46105957 C-8.10244973 -0.65913996 -6.90131262 0.00591372 0 0 Z " fill="#2B2B2B" transform="translate(541.9921875,112.8671875)"/>
<path d="M0 0 C1.08946678 -0.0049926 1.08946678 -0.0049926 2.20094299 -0.01008606 C3.74015671 -0.015158 5.27938145 -0.0174943 6.81860352 -0.01733398 C9.17808096 -0.01951891 11.53708986 -0.0376669 13.89648438 -0.05664062 C15.38932131 -0.05957477 16.88216048 -0.06155942 18.375 -0.0625 C19.43756264 -0.07327827 19.43756264 -0.07327827 20.52159119 -0.08427429 C25.52508288 -0.06085462 25.52508288 -0.06085462 27.75390625 2.16796875 C27.94698687 4.72236952 28.01624734 7.16786794 27.99682617 9.72290039 C27.99872452 10.5018718 28.00062286 11.2808432 28.00257874 12.0834198 C28.00629154 14.66508971 27.9955761 17.24647998 27.984375 19.828125 C27.98318348 21.61649034 27.98272998 23.40485632 27.98298645 25.19322205 C27.98142077 28.94338898 27.97312398 32.69346056 27.9597168 36.44360352 C27.94271458 41.26154425 27.93890275 46.07938023 27.93966198 50.89734745 C27.93939067 54.59037789 27.93391594 58.28338523 27.92666054 61.976408 C27.92346847 63.75350202 27.92150522 65.53059866 27.92076683 67.30769539 C27.91860963 69.78598665 27.90987931 72.26416455 27.89916992 74.74243164 C27.89962311 75.48375336 27.90007629 76.22507507 27.90054321 76.98886108 C27.86838115 82.05349385 27.86838115 82.05349385 26.75390625 83.16796875 C24.16031303 83.25648404 21.59350934 83.2832282 19 83.265625 C18.22455338 83.26421005 17.44910675 83.2627951 16.65016174 83.26133728 C14.16387131 83.2557222 11.67766965 83.24316721 9.19140625 83.23046875 C7.50976692 83.22545569 5.82812619 83.22089245 4.14648438 83.21679688 C0.01559059 83.20574788 -4.11523651 83.1884732 -8.24609375 83.16796875 C-8.26921703 72.49377177 -8.28700876 61.81958069 -8.29790592 51.14536381 C-8.30313478 46.18942953 -8.31023249 41.23351233 -8.3215332 36.27758789 C-8.33236197 31.49898039 -8.33837056 26.72038937 -8.34097099 21.94177055 C-8.34282526 20.11443256 -8.34644591 18.28709551 -8.35182381 16.45976448 C-8.35903411 13.90943546 -8.3600847 11.35917538 -8.35961914 8.80883789 C-8.36321442 8.04567261 -8.36680969 7.28250732 -8.37051392 6.49621582 C-8.35617381 -0.71559564 -6.55416969 0.01026695 0 0 Z " fill="#2B2A2B" transform="translate(635.24609375,112.83203125)"/>
<path d="M0 0 C15.84 0 31.68 0 48 0 C48 12.79903044 48 12.79903044 46.4375 19.25 C46.26114014 20.00104004 46.08478027 20.75208008 45.90307617 21.52587891 C41.08521828 41.39878582 34.21879177 59.76663019 25 78 C24.34 78 23.68 78 23 78 C10.6626289 53.13487778 0 28.1494287 0 0 Z " fill="#E33A36" transform="translate(138,71)"/>
<path d="M0 0 C9.76534335 6.79888999 13.30318672 15.07542742 15.50390625 26.5390625 C16.14755313 31.02938641 16.51232547 35.47774246 16 40 C15 41 15 41 12.63987732 41.12025452 C11.59396927 41.11803391 10.54806122 41.11581329 9.47045898 41.11352539 C8.28931015 41.11344986 7.10816132 41.11337433 5.89122009 41.11329651 C4.6058284 41.10813522 3.32043671 41.10297394 1.99609375 41.09765625 C0.68794205 41.0962413 -0.62020966 41.09482635 -1.96800232 41.09336853 C-5.45162859 41.0895441 -8.93521339 41.07971446 -12.41882324 41.06866455 C-15.97126708 41.05844882 -19.52371759 41.05387056 -23.07617188 41.04882812 C-30.05079832 41.03809212 -37.02539717 41.0210166 -44 41 C-43.7210052 43.21986926 -43.43111112 45.43837021 -43.13671875 47.65625 C-42.97647217 48.89181641 -42.81622559 50.12738281 -42.65112305 51.40039062 C-41.28606051 58.94687808 -38.02561263 65.15133314 -31.8671875 69.81640625 C-24.20686104 74.67221988 -16.17847392 75.08236039 -7.32421875 73.53125 C-1.75179244 72.0753128 2.55898765 69.6040287 7.1875 66.20703125 C9 65 9 65 11 65 C11.48997114 68.12356605 11.64391303 70.8903712 11 74 C5.62368904 80.37544839 -5.95874858 82.58711673 -13.78515625 83.38671875 C-24.30411014 83.69704394 -32.65082305 82.08933002 -40.875 75.3125 C-50.52961656 66.00269117 -53.8559704 53.44650366 -54.25 40.375 C-54.09108889 27.64622043 -50.47407456 15.58432853 -41.6875 6.125 C-31.08899222 -3.67273163 -12.95840302 -7.30382716 0 0 Z M-32 9 C-33.24330078 9.88171875 -33.24330078 9.88171875 -34.51171875 10.78125 C-37.28564044 13.2546998 -38.61401717 15.42637172 -40.25 18.75 C-40.75015625 19.73484375 -41.2503125 20.7196875 -41.765625 21.734375 C-43.40293141 25.67955264 -43.40293141 25.67955264 -44 33 C-27.5 33 -11 33 6 33 C7.93080509 27.20758472 5.28673499 20.70933641 2.7421875 15.3515625 C0.07199594 10.95960807 -2.72261128 7.59652568 -7.53125 5.58984375 C-16.0048972 3.56528564 -24.81126419 3.7893727 -32 9 Z " fill="#CA3130" transform="translate(956,115)"/>
<path d="M0 0 C0.75200684 -0.02231689 1.50401367 -0.04463379 2.27880859 -0.06762695 C8.95352984 -0.04057715 13.94532123 2.0159779 19.08203125 6.26171875 C19.61183594 6.87660156 20.14164063 7.49148437 20.6875 8.125 C21.23019531 8.72699219 21.77289062 9.32898438 22.33203125 9.94921875 C27.42790406 18.16711997 27.2796763 26.68358358 27.16796875 36.09765625 C27.16236211 37.49726401 27.15809707 38.89687773 27.15510559 40.29649353 C27.14374061 43.95112838 27.11434742 47.60539622 27.08099365 51.2598877 C27.05011085 55.00068195 27.03656165 58.74153644 27.02148438 62.48242188 C26.98946796 69.80094719 26.93837521 77.11917185 26.875 84.4375 C20.72265625 84.53515625 20.72265625 84.53515625 18.875 84.4375 C17.21157163 82.77407163 17.51451903 80.6549291 17.3125 78.375 C17.22871094 77.45589844 17.14492188 76.53679687 17.05859375 75.58984375 C16.96771484 74.52443359 16.96771484 74.52443359 16.875 73.4375 C16.14796875 74.23414063 16.14796875 74.23414063 15.40625 75.046875 C9.31158817 81.46971093 3.20903734 85.96084307 -5.82421875 86.640625 C-13.84779239 86.76648498 -20.86750757 86.15185837 -27.4375 81.1875 C-32.50090487 76.00634153 -35.21777497 70.47225986 -35.375 63.1875 C-35.25445441 55.83421925 -32.77149135 50.33251511 -27.7734375 44.96875 C-17.41709061 35.3486363 2.32417678 33.71690389 15.97265625 33.35546875 C16.60042969 33.38253906 17.22820313 33.40960938 17.875 33.4375 C16.4468228 20.53456951 16.4468228 20.53456951 8.875 10.4375 C0.83565637 7.75771879 -8.31736804 8.71414034 -15.93359375 12.21484375 C-19.20676713 14.04105278 -22.12791136 16.18968352 -25.125 18.4375 C-25.785 18.4375 -26.445 18.4375 -27.125 18.4375 C-27.6069378 14.99030599 -27.78809317 11.86874402 -27.125 8.4375 C-24.89263637 5.82697641 -22.2717869 4.71070654 -19.125 3.4375 C-18.42375 3.12039062 -17.7225 2.80328125 -17 2.4765625 C-11.44085259 0.37257963 -5.87980009 0.10381766 0 0 Z M1.25 43.125 C0.11175781 43.27388672 -1.02648437 43.42277344 -2.19921875 43.57617188 C-10.23007454 44.75175639 -18.49408197 46.47649852 -24.1875 52.6875 C-26.3417357 59.00659138 -26.85953455 64.49842782 -24.140625 70.71484375 C-21.67799977 74.891835 -17.70373051 77.2165052 -13.125 78.4375 C-4.79915253 79.25856108 1.90098001 77.98092068 8.5625 72.8125 C13.19460087 68.57259074 16.8264871 62.68442949 17.875 56.4375 C17.94398242 53.84376086 17.96934752 51.27939803 17.9375 48.6875 C17.93298828 47.99011719 17.92847656 47.29273438 17.92382812 46.57421875 C17.9121002 44.86194197 17.89416653 43.14970967 17.875 41.4375 C12.2463112 41.4375 6.8134912 42.31918912 1.25 43.125 Z " fill="#CA3031" transform="translate(815.125,111.5625)"/>
<path d="M0 0 C0.68634521 0.12600586 1.37269043 0.25201172 2.07983398 0.38183594 C5.64820416 1.08802542 8.26466483 1.97608242 11.5625 3.625 C11.5625 6.595 11.5625 9.565 11.5625 12.625 C10.28375 12.33625 9.005 12.0475 7.6875 11.75 C6.85992188 11.56953125 6.03234375 11.3890625 5.1796875 11.203125 C3.51425962 10.83523944 1.85219147 10.45152531 0.1953125 10.046875 C-13.66586239 6.86562175 -26.9863114 8.119232 -39.54296875 14.80859375 C-48.52770613 20.44678927 -53.49587004 27.92252626 -57.4375 37.625 C-57.7778125 38.429375 -58.118125 39.23375 -58.46875 40.0625 C-63.13827058 53.55222613 -62.07056397 71.6148894 -56.4375 84.625 C-51.56845051 93.97020738 -44.23544858 101.54379521 -34.4375 105.625 C-28.42214167 107.45325981 -22.95730847 107.9766186 -16.6875 107.9375 C-15.81077637 107.93548584 -14.93405273 107.93347168 -14.03076172 107.93139648 C-8.07672653 107.83971993 -2.66188206 107.14507028 3.0546875 105.37890625 C5.86875141 104.53293377 8.65933586 104.06089782 11.5625 103.625 C11.5625 106.265 11.5625 108.905 11.5625 111.625 C-1.08948266 119.2161896 -18.79243569 119.59020911 -32.9375 116.5 C-46.3814385 112.46869347 -56.76913063 104.43553107 -63.9375 92.421875 C-72.55875752 76.34682192 -74.11873537 57.71654186 -69.26733398 40.15112305 C-65.00874955 26.16779122 -56.71867126 13.61265503 -44.0234375 5.8671875 C-29.77480899 -0.97731985 -15.44910275 -2.85322056 0 0 Z " fill="#C93030" transform="translate(754.4375,80.375)"/>
<path d="M0 0 C4.29742146 3.3631994 6.40941937 6.78643016 8 12 C8.2727153 17.62884385 6.70941885 21.70488344 3 26 C-3.43397722 30.58732317 -9.27900476 31.64733954 -17 31 C-22.93562639 29.12038498 -28.12390804 26.15524557 -31.375 20.6875 C-32.54398264 15.66087467 -32.57479464 11.6285848 -30.875 6.8125 C-27.84765092 2.27147637 -24.66806843 -0.36310114 -19.5625 -2.3125 C-12.41877633 -3.69111334 -6.57032258 -3.07520737 0 0 Z " fill="#2C2B2B" transform="translate(657,79)"/>
<path d="M0 0 C3.45257271 3.19994544 5.00970686 6.40864088 6 11 C6.10201432 16.65612746 4.75517692 20.65190041 1 25 C-5.39004213 29.55599815 -11.31138694 30.79000221 -19 30 C-25.37930857 28.24192284 -29.29904146 25.43578285 -33 20 C-34.66026461 15.01920617 -34.59903425 10.69726371 -32.875 5.8125 C-29.84765092 1.27147637 -26.66806843 -1.36310114 -21.5625 -3.3125 C-13.52245768 -4.86408711 -7.31404459 -3.56414554 0 0 Z " fill="#2C2C2C" transform="translate(566,80)"/>
<path d="M0 0 C3.61554097 -0.06444541 7.23085579 -0.1118114 10.84683228 -0.14324951 C12.80383839 -0.16272758 14.76070066 -0.19525542 16.7175293 -0.22802734 C17.89613525 -0.23237793 19.07474121 -0.23672852 20.2890625 -0.24121094 C21.30701904 -0.25055664 22.32497559 -0.25990234 23.3737793 -0.26953125 C26.67152375 0.15351654 28.52629991 1.06441442 31.15234375 3.08691406 C32.21484375 6.52441406 32.21484375 6.52441406 32.15234375 10.08691406 C30.0109741 13.02537631 28.81823586 13.98105542 25.19604492 14.55688477 C24.04080322 14.54230225 22.88556152 14.52771973 21.6953125 14.51269531 C21.05153656 14.5099057 20.40776062 14.50711609 19.74447632 14.50424194 C17.60885876 14.48944361 15.47500637 14.44515255 13.33984375 14.39941406 C11.84433575 14.38028908 10.34881026 14.36249159 8.85327148 14.34594727 C5.65474861 14.30575673 2.45689677 14.25078945 -0.74121094 14.18554688 C-5.14210458 14.09635827 -9.54286797 14.03890479 -13.9443512 13.98805237 C-17.52036879 13.94347611 -21.09601089 13.88379104 -24.67172241 13.81942749 C-26.4115857 13.78946032 -28.15152446 13.76359017 -29.89151001 13.74185181 C-32.33446551 13.70869057 -34.77626591 13.65629206 -37.21875 13.59863281 C-37.9484903 13.59221771 -38.67823059 13.58580261 -39.43008423 13.57919312 C-42.32240124 13.49411095 -44.38530783 13.39134311 -46.83618164 11.77758789 C-48.58811231 8.84924613 -47.59829765 6.26270461 -46.84765625 3.08691406 C-43.94087904 0.18013686 -40.89373137 0.73176543 -36.9921875 0.67285156 C-36.19035034 0.65330414 -35.38851318 0.63375671 -34.56237793 0.61361694 C-31.92841123 0.55259341 -29.29445 0.50644185 -26.66015625 0.46191406 C-24.84854571 0.42606929 -23.03694089 0.38993457 -21.2253418 0.35351562 C-16.64191761 0.26546545 -12.05839015 0.19320684 -7.47460938 0.12658691 C-4.98296901 0.08895759 -2.49150751 0.04549821 0 0 Z " fill="#C12D2D" transform="translate(260.84765625,119.9130859375)"/>
<path d="M0 0 C1.89105469 -0.00386719 1.89105469 -0.00386719 3.8203125 -0.0078125 C6.875 0.125 6.875 0.125 7.875 1.125 C7.94679964 2.64428038 7.95892007 4.16667482 7.9375 5.6875 C7.92847656 6.51378906 7.91945313 7.34007813 7.91015625 8.19140625 C7.89855469 8.82949219 7.88695312 9.46757813 7.875 10.125 C6.885 9.795 5.895 9.465 4.875 9.125 C-0.48128157 8.57684253 -6.23367251 7.98955511 -11 10.875 C-19.10171353 17.92685823 -21.27882735 28.93011102 -22.125 39.125 C-22.54984947 46.88861046 -22.63268102 54.66450682 -22.75 62.4375 C-22.78826111 64.54623865 -22.8273173 66.65496303 -22.8671875 68.76367188 C-22.96229043 73.88399618 -23.04663799 79.00439325 -23.125 84.125 C-25.765 84.125 -28.405 84.125 -31.125 84.125 C-31.30179846 73.59861887 -31.46776533 63.07212867 -31.61977577 52.54535866 C-31.69069799 47.65773971 -31.76539793 42.77023851 -31.84863281 37.8828125 C-31.9287712 33.16914249 -31.99911505 28.45542011 -32.06257248 23.74149704 C-32.08856325 21.94005288 -32.11812657 20.13865673 -32.15126419 18.33732986 C-32.19695811 15.82078458 -32.23012415 13.30437051 -32.26025391 10.78759766 C-32.2767952 10.03737839 -32.29333649 9.28715912 -32.31037903 8.51420593 C-32.32525852 6.71680307 -32.23460075 4.91911987 -32.125 3.125 C-30.125 1.125 -30.125 1.125 -27.0625 0.9375 C-24.125 1.125 -24.125 1.125 -23.125 2.125 C-22.89072222 4.14094582 -22.71163876 6.163474 -22.5625 8.1875 C-22.47871094 9.29222656 -22.39492188 10.39695312 -22.30859375 11.53515625 C-22.24800781 12.38980469 -22.18742188 13.24445313 -22.125 14.125 C-21.76148438 13.52171875 -21.39796875 12.9184375 -21.0234375 12.296875 C-15.47282939 3.47283134 -10.72884338 -0.02203048 0 0 Z " fill="#CB3433" transform="translate(893.125,111.875)"/>
<path d="M0 0 C2 2 2 2 2.125 4.4375 C1 7 1 7 -0.6796875 7.8515625 C-2.09255284 8.33673513 -3.50947454 8.81021392 -4.9296875 9.2734375 C-7.98323633 10.3450603 -9.80911279 11.61579921 -12 14 C-12.98118472 16.67642533 -13.48228622 19.17610666 -14 22 C-12.9790625 22.0928125 -12.9790625 22.0928125 -11.9375 22.1875 C-6.70152886 23.63574734 -2.64961479 26.72103604 0.4375 31.1875 C2 34 2 34 2 36 C-10.87 36 -23.74 36 -37 36 C-35.89893722 30.49468608 -35.03626723 29.5776005 -31 26 C-30.154375 25.236875 -29.30875 24.47375 -28.4375 23.6875 C-26 22 -26 22 -22 22 C-22.185625 20.2984375 -22.185625 20.2984375 -22.375 18.5625 C-22.34489234 12.90225986 -19.77251077 9.06627185 -16 5 C-11.01220643 1.11458109 -6.43225028 -0.9188929 0 0 Z " fill="#51AE54" transform="translate(180,28)"/>
<path d="M0 0 C3.63128419 1.21042806 4.39640598 2.75401964 6.1484375 6.05078125 C8.76954318 12.0504681 8 18.58241304 8 25 C-21.7 24.505 -21.7 24.505 -52 24 C-52 20 -52 20 -50 17 C-47.93722534 16.63923645 -47.93722534 16.63923645 -45.36669922 16.65942383 C-43.92543167 16.65976372 -43.92543167 16.65976372 -42.45504761 16.66011047 C-41.41542877 16.67559433 -40.37580994 16.69107819 -39.3046875 16.70703125 C-38.24210724 16.71127609 -37.17952698 16.71552094 -36.08474731 16.71989441 C-32.68124354 16.73672611 -29.27832567 16.77438697 -25.875 16.8125 C-23.57162312 16.82754101 -21.26823698 16.84123042 -18.96484375 16.85351562 C-13.30966909 16.88664441 -7.65493397 16.93845786 -2 17 C-1.67 13.7 -1.34 10.4 -1 7 C-0.01 7.33 0.98 7.66 2 8 C1.67 7.236875 1.34 6.47375 1 5.6875 C0 3 0 3 0 0 Z " fill="#D12E2D" transform="translate(964,130)"/>
<path d="M0 0 C4.09338652 -0.04939115 8.18665798 -0.08571501 12.28027344 -0.10986328 C13.67320781 -0.11992877 15.06612102 -0.13358234 16.45898438 -0.15087891 C18.4595436 -0.1751022 20.46025615 -0.18540814 22.4609375 -0.1953125 C24.26763916 -0.21102295 24.26763916 -0.21102295 26.11083984 -0.22705078 C29 0 29 0 31 2 C31.19308062 4.55440077 31.26234109 6.99989919 31.24291992 9.55493164 C31.24481827 10.33390305 31.24671661 11.11287445 31.24867249 11.91545105 C31.25238529 14.49712096 31.24166985 17.07851123 31.23046875 19.66015625 C31.22927723 21.44852159 31.22882373 23.23688757 31.2290802 25.0252533 C31.22751452 28.77542023 31.21921773 32.52549181 31.20581055 36.27563477 C31.18880833 41.0935755 31.1849965 45.91141148 31.18575573 50.7293787 C31.18548442 54.42240914 31.18000969 58.11541648 31.17275429 61.80843925 C31.16956222 63.58553327 31.16759897 65.36262991 31.16686058 67.13972664 C31.16470338 69.6180179 31.15597306 72.0961958 31.14526367 74.57446289 C31.14571686 75.31578461 31.14617004 76.05710632 31.14663696 76.82089233 C31.1144749 81.8855251 31.1144749 81.8855251 30 83 C27.55169574 83.08843793 25.13179401 83.11528752 22.68359375 83.09765625 C21.95253922 83.0962413 21.22148468 83.09482635 20.46827698 83.09336853 C18.12464368 83.08775408 15.78110461 83.07519922 13.4375 83.0625 C11.85221492 83.05748686 10.26692834 83.05292363 8.68164062 83.04882812 C4.7877239 83.03777997 0.89387795 83.02050572 -3 83 C-3 82.34 -3 81.68 -3 81 C7.23 81 17.46 81 28 81 C27.67 54.93 27.34 28.86 27 2 C18.09 1.67 9.18 1.34 0 1 C0 0.67 0 0.34 0 0 Z " fill="#1A2027" transform="translate(632,113)"/>
<path d="M0 0 C1.89105469 -0.00386719 1.89105469 -0.00386719 3.8203125 -0.0078125 C6.875 0.125 6.875 0.125 7.875 1.125 C7.94679964 2.64428038 7.95892007 4.16667482 7.9375 5.6875 C7.92847656 6.51378906 7.91945313 7.34007813 7.91015625 8.19140625 C7.89855469 8.82949219 7.88695312 9.46757813 7.875 10.125 C6.885 9.795 5.895 9.465 4.875 9.125 C-0.48128157 8.57684253 -6.23367251 7.98955511 -11 10.875 C-18.77746532 17.62561171 -21.11935532 28.34597238 -22.125 38.125 C-22.455 38.125 -22.785 38.125 -23.125 38.125 C-23.49982456 30.62850884 -22.09135585 24.33497145 -20.125 17.125 C-20.125 16.795 -20.125 16.465 -20.125 16.125 C-21.115 16.125 -22.105 16.125 -23.125 16.125 C-23.455 16.785 -23.785 17.445 -24.125 18.125 C-25.115 16.805 -26.105 15.485 -27.125 14.125 C-26.465 13.135 -25.805 12.145 -25.125 11.125 C-24.67360541 9.0757906 -24.67360541 9.0757906 -24.5 6.9375 C-24.314375 5.0503125 -24.314375 5.0503125 -24.125 3.125 C-26.435 3.125 -28.745 3.125 -31.125 3.125 C-30.795 2.465 -30.465 1.805 -30.125 1.125 C-28.12545254 1.08245644 -26.12458364 1.08419217 -24.125 1.125 C-22.31384044 2.93615956 -22.74300552 5.73778227 -22.5625 8.1875 C-22.47871094 9.29222656 -22.39492188 10.39695312 -22.30859375 11.53515625 C-22.24800781 12.38980469 -22.18742188 13.24445313 -22.125 14.125 C-21.76148438 13.52171875 -21.39796875 12.9184375 -21.0234375 12.296875 C-15.47282939 3.47283134 -10.72884338 -0.02203048 0 0 Z " fill="#C23334" transform="translate(893.125,111.875)"/>
<path d="M0 0 C0.33 0.66 0.66 1.32 1 2 C13.87 2 26.74 2 40 2 C40 2.66 40 3.32 40 4 C38.02 4 36.04 4 34 4 C34 4.66 34 5.32 34 6 C37.3 5.67 40.6 5.34 44 5 C44 6.32 44 7.64 44 9 C28.16 9 12.32 9 -4 9 C-4 7.68 -4 6.36 -4 5 C-2.68 4.34 -1.36 3.68 0 3 C0 2.01 0 1.02 0 0 Z " fill="#F1D8D2" transform="translate(142,62)"/>
<path d="M0 0 C2.64 0 5.28 0 8 0 C8.28571429 8.57142857 8.28571429 8.57142857 6 12 C6.66 12.66 7.32 13.32 8 14 C9.98 13.34 11.96 12.68 14 12 C13.54625 13.010625 13.0925 14.02125 12.625 15.0625 C10.19967699 21.41891529 9.74353942 28.28190265 9 35 C8.505 33.515 8.505 33.515 8 32 C7.34 32 6.68 32 6 32 C3.5300391 36.77326353 3.74264996 41.22230347 3.8046875 46.45703125 C3.80893234 47.81147591 3.80893234 47.81147591 3.81326294 49.19328308 C3.82442393 52.06649234 3.84952103 54.93938555 3.875 57.8125 C3.88503507 59.76496944 3.89416 61.71744379 3.90234375 63.66992188 C3.92434992 68.44673566 3.95885169 73.22331431 4 78 C3.01 78.495 3.01 78.495 2 79 C2 53.26 2 27.52 2 1 C1.34 0.67 0.68 0.34 0 0 Z " fill="#D02E29" transform="translate(861,115)"/>
<path d="M0 0 C0.83055908 -0.01466309 1.66111816 -0.02932617 2.5168457 -0.04443359 C8.69613444 0.05721757 13.36725254 1.69455505 18.8125 4.5625 C18.8125 6.2125 18.8125 7.8625 18.8125 9.5625 C18.1525 8.9025 17.4925 8.2425 16.8125 7.5625 C16.214375 7.7275 15.61625 7.8925 15 8.0625 C12.8125 8.5625 12.8125 8.5625 10.71484375 7.578125 C6.74942084 6.19049384 3.33213565 6.50837145 -0.8125 6.8125 C-1.575625 6.85246094 -2.33875 6.89242187 -3.125 6.93359375 C-6.90265266 7.1788098 -8.98239504 7.42576336 -12.1875 9.5625 C-15.375 9.6875 -15.375 9.6875 -18.1875 9.5625 C-18.5175 10.5525 -18.8475 11.5425 -19.1875 12.5625 C-20.5075 12.2325 -21.8275 11.9025 -23.1875 11.5625 C-22.98828125 8.7421875 -22.98828125 8.7421875 -22.1875 5.5625 C-15.99943818 0.41575612 -7.68994374 0.08416783 0 0 Z " fill="#CE302E" transform="translate(812.1875,112.4375)"/>
<path d="M0 0 C2 2 2 2 2.125 4.4375 C1 7 1 7 -0.6796875 7.8515625 C-2.09294404 8.33686946 -3.5098333 8.81169264 -4.9296875 9.27734375 C-8.02664498 10.35835721 -9.8059154 11.5477878 -12 14 C-12.97905573 16.96279693 -13.55828935 19.91461813 -14 23 C-15.9914056 23.38133299 -17.99279077 23.71325582 -20 24 C-21.70134085 22.29865915 -21.29256137 20.20230597 -21.375 17.875 C-21.30740558 13.13110076 -20.77558709 10.13896924 -17.68359375 6.50390625 C-12.4761234 1.8522216 -7.12583165 -1.01797595 0 0 Z " fill="#327C36" transform="translate(180,28)"/>
<path d="M0 0 C2.83439137 -0.10901505 5.66450203 -0.18777904 8.5 -0.25 C9.29148437 -0.28351563 10.08296875 -0.31703125 10.8984375 -0.3515625 C17.90707696 -0.46645823 22.95032322 1.32754805 28.2421875 5.96484375 C34.12790698 13.0755814 34.12790698 13.0755814 35 17 C34.625 19.3125 34.625 19.3125 34 21 C33.01 19.35 32.02 17.7 31 16 C29.02 16.99 27.04 17.98 25 19 C24.401875 18.071875 23.80375 17.14375 23.1875 16.1875 C19.96831978 11.43233298 19.96831978 11.43233298 15 9 C2.27835586 7.99087088 -5.95058088 10.46293566 -16 18 C-16.66 18 -17.32 18 -18 18 C-18 14.7 -18 11.4 -18 8 C-17.34 7.67 -16.68 7.34 -16 7 C-16.33 8.65 -16.66 10.3 -17 12 C-15.68 12 -14.36 12 -13 12 C-12.67 11.34 -12.34 10.68 -12 10 C-10.1875 9.40234375 -10.1875 9.40234375 -8 8.9375 C-5.22885123 8.48293377 -5.22885123 8.48293377 -3 7 C14.34792968 4.92974983 14.34792968 4.92974983 22 9 C22.33 8.34 22.66 7.68 23 7 C23.495 7.495 23.495 7.495 24 8 C24 7.01 24 6.02 24 5 C16.25648396 1.28956523 8.43611322 1.29690204 0 1 C0 0.67 0 0.34 0 0 Z " fill="#BC3437" transform="translate(806,112)"/>
<path d="M0 0 C0.66 0.33 1.32 0.66 2 1 C2.33 8.26 2.66 15.52 3 23 C3.66 23 4.32 23 5 23 C5.33 26.63 5.66 30.26 6 34 C1 35 1 35 -1 34 C-2.31745857 30.12081644 -3 27.11624135 -3 23 C-3.66 22.67 -4.32 22.34 -5 22 C-4.67 21.67 -4.34 21.34 -4 21 C-3.84379445 19.58672053 -3.74943827 18.1664541 -3.68359375 16.74609375 C-3.64169922 15.89208984 -3.59980469 15.03808594 -3.55664062 14.15820312 C-3.51732422 13.26037109 -3.47800781 12.36253906 -3.4375 11.4375 C-3.39431641 10.53580078 -3.35113281 9.63410156 -3.30664062 8.70507812 C-3.20021858 6.47021515 -3.09820012 4.23523692 -3 2 C-2.01 2 -1.02 2 0 2 C0 1.34 0 0.68 0 0 Z " fill="#D12F2C" transform="translate(688,128)"/>
<path d="M0 0 C3 1 3 1 5 4 C5.07905064 6.33199388 5.08798769 8.66832622 5 11 C4.01 10.67 3.02 10.34 2 10 C2.495 12.475 2.495 12.475 3 15 C4.32 15.33 5.64 15.66 7 16 C7 17.32 7 18.64 7 20 C3.15313266 21.28228911 0.09821799 20.91540679 -3.859375 20.50390625 C-13.30615811 19.6967444 -22.77731644 19.89415237 -32.25 19.9375 C-34.17057175 19.94252598 -36.09114477 19.94708694 -38.01171875 19.95117188 C-42.67451118 19.96208833 -47.33724119 19.9792922 -52 20 C-51.01 18.515 -51.01 18.515 -50 17 C-47.93722534 16.63923645 -47.93722534 16.63923645 -45.36669922 16.65942383 C-43.92543167 16.65976372 -43.92543167 16.65976372 -42.45504761 16.66011047 C-41.41542877 16.67559433 -40.37580994 16.69107819 -39.3046875 16.70703125 C-38.24210724 16.71127609 -37.17952698 16.71552094 -36.08474731 16.71989441 C-32.68124354 16.73672611 -29.27832567 16.77438697 -25.875 16.8125 C-23.57162312 16.82754101 -21.26823698 16.84123042 -18.96484375 16.85351562 C-13.30966909 16.88664441 -7.65493397 16.93845786 -2 17 C-1.67 13.7 -1.34 10.4 -1 7 C-0.01 7.33 0.98 7.66 2 8 C1.67 7.236875 1.34 6.47375 1 5.6875 C0 3 0 3 0 0 Z " fill="#D72222" transform="translate(964,130)"/>
<path d="M0 0 C0.33 0 0.66 0 1 0 C1.33 38.61 1.66 77.22 2 117 C17.84 117.495 17.84 117.495 34 118 C34 118.66 34 119.32 34 120 C22.45 120 10.9 120 -1 120 C-0.505 60.6 -0.505 60.6 0 0 Z " fill="#27221D" transform="translate(582,76)"/>
<path d="M0 0 C0.49037112 3.12611591 0.68157993 5.89386855 0 9 C-3.35911274 12.50622717 -8.14485636 14.72256322 -13 15 C-13.99 14.67 -14.98 14.34 -16 14 C-16 13.01 -16 12.02 -16 11 C-17.79244141 11.03480469 -17.79244141 11.03480469 -19.62109375 11.0703125 C-35.30130573 11.2810946 -35.30130573 11.2810946 -43 9 C-43.33 7.68 -43.66 6.36 -44 5 C-43.34515625 5.28875 -42.6903125 5.5775 -42.015625 5.875 C-32.33135949 9.81436224 -23.37767355 10.40487225 -13.39453125 7.06640625 C-9.90647639 5.51299846 -6.88402631 3.46131217 -3.8125 1.20703125 C-2 0 -2 0 0 0 Z " fill="#CA322F" transform="translate(967,180)"/>
<path d="M0 0 C3.7502314 3.7502314 3.3786924 4.92467856 3.38818359 10.10180664 C3.39344055 10.82079636 3.39869751 11.53978607 3.40411377 12.28056335 C3.41731883 14.65731522 3.40857527 17.03339757 3.3984375 19.41015625 C3.40045788 21.06017689 3.40336901 22.71019666 3.40713501 24.36021423 C3.41155884 27.81778467 3.40512469 31.2751226 3.39111328 34.73266602 C3.3740078 39.17062123 3.38387056 43.60803273 3.40183067 48.04596806 C3.41265558 51.45255147 3.4092284 54.85900532 3.4014473 58.26559258 C3.39944239 59.90230816 3.40191472 61.53903541 3.40888596 63.17573738 C3.41648091 65.46000609 3.40492555 67.74338565 3.38818359 70.02758789 C3.38460342 71.97925621 3.38460342 71.97925621 3.38095093 73.97035217 C3.25523712 74.97013596 3.12952332 75.96991974 3 77 C1.515 77.99 1.515 77.99 0 79 C0 52.93 0 26.86 0 0 Z " fill="#49372C" transform="translate(627,115)"/>
<path d="M0 0 C0.33 0 0.66 0 1 0 C1 2.31 1 4.62 1 7 C2.65 7.33 4.3 7.66 6 8 C6.66 6.35 7.32 4.7 8 3 C9.12781531 6.38344592 8.74940563 7.59735279 8 11 C7.8599637 12.76452396 7.7559922 14.53219044 7.68359375 16.30078125 C7.64169922 17.27724609 7.59980469 18.25371094 7.55664062 19.25976562 C7.51732422 20.26716797 7.47800781 21.27457031 7.4375 22.3125 C7.39431641 23.33923828 7.35113281 24.36597656 7.30664062 25.42382812 C7.20093175 27.94909569 7.09883532 30.47445562 7 33 C6.34 33 5.68 33 5 33 C3.90684754 28.4161086 3.67717375 23.87488993 3.4375 19.1875 C3.39431641 18.39923828 3.35113281 17.61097656 3.30664062 16.79882812 C3.20121679 14.86605785 3.10016906 12.93304974 3 11 C1.68 11.33 0.36 11.66 -1 12 C-1 18.27 -1 24.54 -1 31 C-1.66 31.33 -2.32 31.66 -3 32 C-3.3181514 20.84113421 -3.25110453 10.77895966 0 0 Z " fill="#BC333C" transform="translate(686,118)"/>
<path d="M0 0 C2 1 2 1 3.11279297 4.20703125 C4.49414496 10.30221525 4.24667643 16.47131204 4.1953125 22.6875 C4.19106766 24.63487061 4.19106766 24.63487061 4.18673706 26.62158203 C4.17915637 30.04762692 4.15955685 33.47349812 4.1373291 36.8994751 C4.11674969 40.40561576 4.10770966 43.9117849 4.09765625 47.41796875 C4.07630476 54.27871649 4.04223736 61.13934987 4 68 C1.75937252 64.63905878 1.7342384 63.45601441 1.68115234 59.51879883 C1.66128265 58.39786331 1.64141296 57.2769278 1.62094116 56.12202454 C1.60938995 54.91257675 1.59783875 53.70312897 1.5859375 52.45703125 C1.56657135 51.21829758 1.5472052 49.9795639 1.5272522 48.70329285 C1.47756593 45.41374825 1.43630718 42.12423875 1.39910889 38.83453369 C1.35906688 35.47617475 1.30797549 32.11798594 1.2578125 28.75976562 C1.16167847 22.17328642 1.07665152 15.58673317 1 9 C0.67 9 0.34 9 0 9 C0 6.03 0 3.06 0 0 Z " fill="#2B3046" transform="translate(520,127)"/>
<path d="M0 0 C5.42375433 0.33898465 9.17211661 3.40388299 13 7 C16.60705754 11.42330978 19.12862195 15.30098721 20 21 C19.01 20.34 18.02 19.68 17 19 C17 19.99 17 20.98 17 22 C17 22.99 17 23.98 17 25 C16.34 25 15.68 25 15 25 C14.67 27.31 14.34 29.62 14 32 C13.67 32 13.34 32 13 32 C12.84144531 31.23816406 12.68289063 30.47632813 12.51953125 29.69140625 C10.94759564 22.73493981 8.84200999 17.01358086 5 11 C9.39158329 12.4638611 9.87947433 14.97831338 12 19 C12 18.34 12 17.68 12 17 C12.66 16.34 13.32 15.68 14 15 C13.67958603 12.39719432 13.67958603 12.39719432 13 10 C11.02 9.34 9.04 8.68 7 8 C7 6.68 7 5.36 7 4 C5.35 3.67 3.7 3.34 2 3 C2 2.34 2 1.68 2 1 C1.34 0.67 0.68 0.34 0 0 Z " fill="#B53138" transform="translate(949,113)"/>
<path d="M0 0 C2 2 2 2 2.125 4.4375 C1 7 1 7 -0.64453125 7.8515625 C-2.04061989 8.33739067 -3.44495847 8.79997347 -4.85546875 9.2421875 C-7.97640549 10.34503218 -10.32987521 12.06415953 -13 14 C-14.125 9.25 -14.125 9.25 -13 7 C-12.34 7.33 -11.68 7.66 -11 8 C-10.67 7.34 -10.34 6.68 -10 6 C-9.01 5.67 -8.02 5.34 -7 5 C-7.33 4.67 -7.66 4.34 -8 4 C-12.455 5.485 -12.455 5.485 -17 7 C-12.0924555 1.52620037 -7.40888749 -0.71239303 0 0 Z " fill="#347B35" transform="translate(180,28)"/>
<path d="M0 0 C1.99954746 -0.04254356 4.00041636 -0.04080783 6 0 C7.81115956 1.81115956 7.38199448 4.61278227 7.5625 7.0625 C7.64628906 8.16722656 7.73007812 9.27195312 7.81640625 10.41015625 C7.87699219 11.26480469 7.93757812 12.11945313 8 13 C8.99 11.35 9.98 9.7 11 8 C12.65 9.65 14.3 11.3 16 13 C15.59007812 13.72703125 15.18015625 14.4540625 14.7578125 15.203125 C10.88326185 22.43314774 8.83863745 28.84497375 8 37 C7.67 37 7.34 37 7 37 C6.62517544 29.50350884 8.03364415 23.20997145 10 16 C10 15.67 10 15.34 10 15 C9.01 15 8.02 15 7 15 C6.67 15.66 6.34 16.32 6 17 C5.01 15.68 4.02 14.36 3 13 C3.66 12.01 4.32 11.02 5 10 C5.45139459 7.9507906 5.45139459 7.9507906 5.625 5.8125 C5.810625 3.9253125 5.810625 3.9253125 6 2 C3.69 2 1.38 2 -1 2 C-0.67 1.34 -0.34 0.68 0 0 Z " fill="#BD3738" transform="translate(863,113)"/>
<path d="M0 0 C0.33 0.66 0.66 1.32 1 2 C0.0390625 4.171875 0.0390625 4.171875 -1.375 6.75 C-5.9931471 15.67927057 -5.3849777 24.3051561 -4 34 C-4.66 34 -5.32 34 -6 34 C-8.44038726 29.11922548 -9.46845421 26.47332932 -8 21 C-8.66 21 -9.32 21 -10 21 C-9.505 19.515 -9.505 19.515 -9 18 C-8.34 18 -7.68 18 -7 18 C-7 17.01 -7 16.02 -7 15 C-7.66 14.67 -8.32 14.34 -9 14 C-8.67 11.03 -8.34 8.06 -8 5 C-6.68 4.67 -5.36 4.34 -4 4 C-1.77022004 2.02098426 -1.77022004 2.02098426 0 0 Z " fill="#242C37" transform="translate(379,117)"/>
<path d="M0 0 C1.08667969 0.02707031 2.17335938 0.05414063 3.29296875 0.08203125 C4.54013672 0.13423828 4.54013672 0.13423828 5.8125 0.1875 C5.8125 1.8375 5.8125 3.4875 5.8125 5.1875 C-0.06633349 7.80031488 -5.89481728 7.37078202 -12.1875 7.1875 C-12.5175 6.5275 -12.8475 5.8675 -13.1875 5.1875 C-12.589375 4.919375 -11.99125 4.65125 -11.375 4.375 C-9.15355418 3.35232716 -9.15355418 3.35232716 -7.9375 1.625 C-5.35019911 -0.50028288 -3.28576415 -0.10599239 0 0 Z " fill="#CF2D2D" transform="translate(893.1875,112.8125)"/>
<path d="M0 0 C0.598125 0.78375 1.19625 1.5675 1.8125 2.375 C3.91085249 5.14574323 3.91085249 5.14574323 7 7 C7.1875 10.625 7.1875 10.625 7 14 C11.21896866 16.04898287 14.65372146 16.21207997 19.3125 16.125 C20.56675781 16.10695312 21.82101562 16.08890625 23.11328125 16.0703125 C24.06589844 16.04710937 25.01851562 16.02390625 26 16 C20.42861193 19.32165892 13.61992394 18.70311117 7.42578125 17.5 C2.29545184 15.96699834 -1.13021465 13.67133482 -5 10 C-2.50907189 8.75453595 -1.58919267 9.2232422 1 10 C1.66 9.01 2.32 8.02 3 7 C2.01 6.34 1.02 5.68 0 5 C-0.1875 2.375 -0.1875 2.375 0 0 Z " fill="#BB3837" transform="translate(790,180)"/>
<path d="M0 0 C4.81449408 0.48144941 7.60171741 0.8008587 12 3 C12 5.97 12 8.94 12 12 C10.72125 11.71125 9.4425 11.4225 8.125 11.125 C6.41683017 10.74925593 4.70848925 10.374289 3 10 C2.20722656 9.82082031 1.41445313 9.64164063 0.59765625 9.45703125 C-5.90447209 8.05543794 -12.36735121 7.43305954 -19 7 C-19 6.67 -19 6.34 -19 6 C-18.37955811 6.00523682 -17.75911621 6.01047363 -17.11987305 6.01586914 C-14.30909233 6.03665466 -11.49832779 6.04966517 -8.6875 6.0625 C-7.22280273 6.07506836 -7.22280273 6.07506836 -5.72851562 6.08789062 C-4.79072266 6.09111328 -3.85292969 6.09433594 -2.88671875 6.09765625 C-2.02264404 6.10289307 -1.15856934 6.10812988 -0.26831055 6.11352539 C2.16728714 6.09335523 2.16728714 6.09335523 5 5 C5 5.66 5 6.32 5 7 C5.639375 6.814375 6.27875 6.62875 6.9375 6.4375 C7.618125 6.293125 8.29875 6.14875 9 6 C9.33 6.33 9.66 6.66 10 7 C10.33 6.01 10.66 5.02 11 4 C7.37 3.01 3.74 2.02 0 1 C0 0.67 0 0.34 0 0 Z " fill="#B63839" transform="translate(754,81)"/>
<path d="M0 0 C0 3 0 3 -2 6 C1.3 5.67 4.6 5.34 8 5 C6.02 7.31 4.04 9.62 2 12 C1.67 11.01 1.34 10.02 1 9 C-0.79649965 7.9046469 -0.79649965 7.9046469 -3 8 C-6.55014375 10.68950284 -8.18131364 13.99889001 -10 18 C-10.66 18 -11.32 18 -12 18 C-9.47270653 11.17630763 -5.48000749 4.84769894 0 0 Z " fill="#BF3E38" transform="translate(701,94)"/>
<path d="M0 0 C0.33 0 0.66 0 1 0 C1.33 3.96 1.66 7.92 2 12 C1.01 12 0.02 12 -1 12 C-1 18.27 -1 24.54 -1 31 C-1.66 31.33 -2.32 31.66 -3 32 C-3.3181514 20.84113421 -3.25110453 10.77895966 0 0 Z " fill="#BF463A" transform="translate(686,118)"/>
<path d="M0 0 C4.39158329 1.4638611 4.87947433 3.97831338 7 8 C7 7.34 7 6.68 7 6 C8.32 5.34 9.64 4.68 11 4 C11.72945166 7.46489537 12 10.46423522 12 14 C11.34 14 10.68 14 10 14 C9.67 16.31 9.34 18.62 9 21 C8.67 21 8.34 21 8 21 C7.84144531 20.23816406 7.68289063 19.47632813 7.51953125 18.69140625 C5.94759564 11.73493981 3.84200999 6.01358086 0 0 Z " fill="#C63734" transform="translate(954,124)"/>
<path d="M0 0 C4.875 4.5 4.875 4.5 6 9 C-6.87 9 -19.74 9 -33 9 C-32.67 8.01 -32.34 7.02 -32 6 C-32 6.66 -32 7.32 -32 8 C-20.78 8 -9.56 8 2 8 C1.34 5.36 0.68 2.72 0 0 Z " fill="#57A157" transform="translate(176,55)"/>
<path d="M0 0 C1.98 1.65 3.96 3.3 6 5 C5.401875 5.12375 4.80375 5.2475 4.1875 5.375 C1.73768652 5.95475985 1.73768652 5.95475985 -1 8 C-0.34 9.32 0.32 10.64 1 12 C-2.45195767 10.5741914 -4.1014256 8.90253666 -6.25 5.875 C-7.03117188 4.78832031 -7.03117188 4.78832031 -7.828125 3.6796875 C-8.21484375 3.12539062 -8.6015625 2.57109375 -9 2 C-7.68 1.67 -6.36 1.34 -5 1 C-5 2.65 -5 4.3 -5 6 C-4.01 5.34 -3.02 4.68 -2 4 C-2 3.01 -2 2.02 -2 1 C-1.34 0.67 -0.68 0.34 0 0 Z " fill="#C73331" transform="translate(917,179)"/>
<path d="M0 0 C0 0.66 0 1.32 0 2 C-0.99 2 -1.98 2 -3 2 C-3 2.99 -3 3.98 -3 5 C0.63 5.33 4.26 5.66 8 6 C8 6.33 8 6.66 8 7 C5.73122896 7.24875561 3.45980265 7.47339246 1.1875 7.6875 C-0.07707031 7.81511719 -1.34164062 7.94273437 -2.64453125 8.07421875 C-6 8 -6 8 -7.94921875 6.64453125 C-9 5 -9 5 -9 3 C-9.99 2.34 -10.98 1.68 -12 1 C-7.93631321 0.22596442 -4.13574827 -0.0984702 0 0 Z " fill="#BB3535" transform="translate(820,147)"/>
<path d="M0 0 C2.97 0.495 2.97 0.495 6 1 C5.67 1.99 5.34 2.98 5 4 C6.65 4.33 8.3 4.66 10 5 C9.67 5.99 9.34 6.98 9 8 C3.72 7.67 -1.56 7.34 -7 7 C-6.34 6.34 -5.68 5.68 -5 5 C-4.34 5.33 -3.68 5.66 -3 6 C-3 5.01 -3 4.02 -3 3 C-2.01 3 -1.02 3 0 3 C0 2.01 0 1.02 0 0 Z " fill="#D02C2C" transform="translate(820,146)"/>
<path d="M0 0 C2.64 0 5.28 0 8 0 C8.25 7.625 8.25 7.625 6 11 C5.01 11 4.02 11 3 11 C2.92652344 9.93458984 2.92652344 9.93458984 2.8515625 8.84765625 C2.73941406 7.46900391 2.73941406 7.46900391 2.625 6.0625 C2.55539062 5.14597656 2.48578125 4.22945313 2.4140625 3.28515625 C2.27742187 2.53105469 2.14078125 1.77695313 2 1 C1.34 0.67 0.68 0.34 0 0 Z " fill="#D12E2E" transform="translate(861,115)"/>
<path d="M0 0 C2 1.125 2 1.125 4 3 C4.25 6.1875 4.25 6.1875 4 9 C3.34 9 2.68 9 2 9 C1.34 10.32 0.68 11.64 0 13 C-0.66 12.67 -1.32 12.34 -2 12 C-3.17466975 8.11455391 -3.17293888 6.40603042 -1.5625 2.625 C-1.046875 1.75875 -0.53125 0.8925 0 0 Z " fill="#D12E2E" transform="translate(695,164)"/>
<path d="M0 0 C1.35350594 0.62469505 2.69934483 1.2716331 4 2 C4.66 0.68 5.32 -0.64 6 -2 C6.33 -0.02 6.66 1.96 7 4 C6.01 4 5.02 4 4 4 C3.8453125 5.6396875 3.8453125 5.6396875 3.6875 7.3125 C2.98885988 11.05975155 2.68602762 11.65962741 0 14 C0.02320313 13.22914062 0.04640625 12.45828125 0.0703125 11.6640625 C0.08835938 10.66117188 0.10640625 9.65828125 0.125 8.625 C0.14820313 7.62726563 0.17140625 6.62953125 0.1953125 5.6015625 C0.27216848 2.83737827 0.27216848 2.83737827 -2 1 C-5.73296326 0.61713197 -6.77626323 0.85084215 -10 3 C-9.625 1.0625 -9.625 1.0625 -9 -1 C-5.77272143 -2.61363928 -3.31076949 -1.08456242 0 0 Z " fill="#FACFCE" transform="translate(138,107)"/>
<path d="M0 0 C0.66 0.33 1.32 0.66 2 1 C2.66796875 3.14453125 2.66796875 3.14453125 3.1875 5.8125 C3.36667969 6.68519531 3.54585938 7.55789062 3.73046875 8.45703125 C3.99719949 10.97357778 3.78333107 12.61667355 3 15 C3 14.34 3 13.68 3 13 C2.01 12.67 1.02 12.34 0 12 C-0.33 11.34 -0.66 10.68 -1 10 C-1.99 10.33 -2.98 10.66 -4 11 C-3.52269162 9.5410574 -3.04308958 8.08286504 -2.5625 6.625 C-2.29566406 5.81289062 -2.02882813 5.00078125 -1.75390625 4.1640625 C-1 2 -1 2 0 0 Z " fill="#F9CDCF" transform="translate(94,99)"/>
<path d="M0 0 C0.3125 2.3125 0.3125 2.3125 0 5 C-2.3125 6.875 -2.3125 6.875 -5 8 C-8 7 -8 7 -10 4 C-4.5 0 -4.5 0 0 0 Z " fill="#CB312F" transform="translate(965,183)"/>
<path d="M0 0 C0.66 0 1.32 0 2 0 C2.49037112 3.12611591 2.68157993 5.89386855 2 9 C-1.43488426 12.58531715 -6.07582294 14.5383584 -11 15 C-10.34 14.01 -9.68 13.02 -9 12 C-7.68 12 -6.36 12 -5 12 C-4.67 11.01 -4.34 10.02 -4 9 C-1.9375 8.3125 -1.9375 8.3125 0 8 C0 6.35 0 4.7 0 3 C-0.66 2.67 -1.32 2.34 -2 2 C-1.34 1.34 -0.68 0.68 0 0 Z " fill="#AE373E" transform="translate(965,180)"/>
<path d="M0 0 C2.64752004 2.57784846 4.94432065 4.91648098 7 8 C4.69 7.34 2.38 6.68 0 6 C-0.73472644 7.80916054 -0.73472644 7.80916054 -1 10 C-0.04874049 11.9830506 -0.04874049 11.9830506 1.4375 13.75 C2.14712891 14.67039063 2.14712891 14.67039063 2.87109375 15.609375 C3.24363281 16.06828125 3.61617187 16.5271875 4 17 C0.54804233 15.5741914 -1.1014256 13.90253666 -3.25 10.875 C-4.03117188 9.78832031 -4.03117188 9.78832031 -4.828125 8.6796875 C-5.21484375 8.12539062 -5.6015625 7.57109375 -6 7 C-5.01 6.67 -4.02 6.34 -3 6 C-2.67 5.34 -2.34 4.68 -2 4 C-1.34 4 -0.68 4 0 4 C0 2.68 0 1.36 0 0 Z " fill="#B93738" transform="translate(699,169)"/>
<path d="M0 0 C1.89105469 -0.00386719 1.89105469 -0.00386719 3.8203125 -0.0078125 C6.875 0.125 6.875 0.125 7.875 1.125 C7.94679964 2.64428038 7.95892007 4.16667482 7.9375 5.6875 C7.92847656 6.51378906 7.91945313 7.34007813 7.91015625 8.19140625 C7.89855469 8.82949219 7.88695312 9.46757813 7.875 10.125 C5.235 9.465 2.595 8.805 -0.125 8.125 C-0.125 7.795 -0.125 7.465 -0.125 7.125 C1.525 6.795 3.175 6.465 4.875 6.125 C5.205 4.475 5.535 2.825 5.875 1.125 C3.89543559 1.26533111 1.91634859 1.4124123 -0.0625 1.5625 C-1.16464844 1.64371094 -2.26679687 1.72492188 -3.40234375 1.80859375 C-6.03609903 1.82918084 -6.03609903 1.82918084 -7.125 3.125 C-8.79117115 3.16563832 -10.45888095 3.167721 -12.125 3.125 C-8.51623702 -0.48376298 -4.86667813 -0.00999318 0 0 Z " fill="#B2353B" transform="translate(893.125,111.875)"/>
<path d="M0 0 C6.75 -0.125 6.75 -0.125 9 1 C10.6853196 1.09534254 12.37449266 1.12985758 14.0625 1.125 C14.96097656 1.12757813 15.85945312 1.13015625 16.78515625 1.1328125 C18.97378893 1.24738223 18.97378893 1.24738223 20 0 C21.51928038 -0.07179964 23.04167482 -0.08392007 24.5625 -0.0625 C25.38878906 -0.05347656 26.21507812 -0.04445312 27.06640625 -0.03515625 C27.70449219 -0.02355469 28.34257813 -0.01195312 29 0 C24.05562884 3.29624744 19.41503437 3.15803105 13.5625 3.1875 C11.64630859 3.20876953 11.64630859 3.20876953 9.69140625 3.23046875 C6.09718029 3.00606734 3.33803042 2.30528856 0 1 C0 0.67 0 0.34 0 0 Z " fill="#B13737" transform="translate(925,195)"/>
<path d="M0 0 C3.93521641 5.90282461 3.12430212 13.13576053 3 20 C2.67 20 2.34 20 2 20 C2 17.03 2 14.06 2 11 C0.35 10.67 -1.3 10.34 -3 10 C-3 8.35 -3 6.7 -3 5 C-2.34 5 -1.68 5 -1 5 C-0.67 3.35 -0.34 1.7 0 0 Z " fill="#B63136" transform="translate(969,135)"/>
<path d="M0 0 C0.99 0.33 1.98 0.66 3 1 C2.59007812 1.79921875 2.18015625 2.5984375 1.7578125 3.421875 C-1.92506978 10.92861114 -4.13062226 17.68095438 -5 26 C-5.33 26 -5.66 26 -6 26 C-6.46368819 16.72623625 -5.14104229 7.89157191 0 0 Z " fill="#B0313E" transform="translate(876,124)"/>
<path d="M0 0 C1.32 0.66 2.64 1.32 4 2 C2.35 5.3 0.7 8.6 -1 12 C-1.66 12 -2.32 12 -3 12 C-3.99 9.69 -4.98 7.38 -6 5 C-4.02 4.34 -2.04 3.68 0 3 C0 2.01 0 1.02 0 0 Z " fill="#D64643" transform="translate(164,137)"/>
<path d="M0 0 C0.33 0 0.66 0 1 0 C1.10957031 0.90621094 1.21914063 1.81242188 1.33203125 2.74609375 C2.25700022 9.8525627 3.45742463 16.29684675 6 23 C4 23 4 23 1.890625 21.08203125 C-0.70308158 16.85386082 -0.44901401 13.53655285 -0.25 8.6875 C-0.23195313 7.85154297 -0.21390625 7.01558594 -0.1953125 6.15429688 C-0.14841126 4.10236772 -0.07667411 2.05103244 0 0 Z " fill="#B52E3D" transform="translate(911,156)"/>
<path d="M0 0 C1.32 0.66 2.64 1.32 4 2 C2.54054054 7.59459459 2.54054054 7.59459459 0.25 9.3125 C-2.52422908 10.16018111 -5.1056333 10.74831594 -8 11 C-8.66 10.34 -9.32 9.68 -10 9 C-6.71536341 6.81024227 -3.79303725 6.00193437 0 5 C0 3.35 0 1.7 0 0 Z " fill="#E1E7D7" transform="translate(181,29)"/>
<path d="M0 0 C0.33 3.3 0.66 6.6 1 10 C-3 10 -3 10 -5 9 C-4.6875 5.625 -4.6875 5.625 -4 2 C-1 0 -1 0 0 0 Z " fill="#D42D2E" transform="translate(692,116)"/>
<path d="M0 0 C0.99 0 1.98 0 3 0 C3 0.66 3 1.32 3 2 C2.01 2.495 2.01 2.495 1 3 C1 5.97 1 8.94 1 12 C1.66 12 2.32 12 3 12 C3.33 13.65 3.66 15.3 4 17 C4.99 17 5.98 17 7 17 C6.67 17.99 6.34 18.98 6 20 C3.09197539 17.78071806 1.04687238 16.07030857 -1 13 C-1.23046875 10.37109375 -1.23046875 10.37109375 -1.1875 7.4375 C-1.18105469 6.46683594 -1.17460938 5.49617188 -1.16796875 4.49609375 C-1 2 -1 2 0 0 Z " fill="#312820" transform="translate(535,86)"/>
<path d="M0 0 C0.91265625 0.433125 0.91265625 0.433125 1.84375 0.875 C10.34855138 4.47703353 17.95255003 4.40866775 27 4 C27 4.66 27 5.32 27 6 C9.14350797 6.3690205 9.14350797 6.3690205 1 4 C0.67 2.68 0.34 1.36 0 0 Z " fill="#B03336" transform="translate(923,185)"/>
<path d="M0 0 C2.375 1.25 2.375 1.25 5 4 C6.43368371 8.99721486 7.66806522 13.99580433 6 19 C4.99619084 16.20964954 3.9968055 13.41785145 3 10.625 C2.57074219 9.43390625 2.57074219 9.43390625 2.1328125 8.21875 C1.86210937 7.45820312 1.59140625 6.69765625 1.3125 5.9140625 C1.06113281 5.2123291 0.80976563 4.5105957 0.55078125 3.78759766 C0 2 0 2 0 0 Z " fill="#D94D4B" transform="translate(143,103)"/>
<path d="M0 0 C0.99 0.33 1.98 0.66 3 1 C5.43614106 5.99408918 5.05635802 9.71820988 4 15 C3.34 15.66 2.68 16.32 2 17 C1.34 16.34 0.68 15.68 0 15 C-0.66 14.67 -1.32 14.34 -2 14 C-1.67 13.34 -1.34 12.68 -1 12 C0.32 12 1.64 12 3 12 C2.69106068 10.3743193 2.3777305 8.74947252 2.0625 7.125 C1.88847656 6.22007813 1.71445312 5.31515625 1.53515625 4.3828125 C1.10036299 2.00043683 1.10036299 2.00043683 0 0 Z " fill="#272B3B" transform="translate(660,84)"/>
<path d="M0 0 C0.99 0.33 1.98 0.66 3 1 C5.33299825 1.03954234 7.66708189 1.04401732 10 1 C7.59327602 3.40672398 5.88621451 3.79132175 2.625 4.6875 C1.66851563 4.95949219 0.71203125 5.23148438 -0.2734375 5.51171875 C-2.97064661 5.9947433 -4.44972144 5.9004538 -7 5 C-6.01 5 -5.02 5 -4 5 C-4 4.34 -4 3.68 -4 3 C-3.34 3 -2.68 3 -2 3 C-1.67 2.34 -1.34 1.68 -1 1 C-0.67 0.67 -0.34 0.34 0 0 Z " fill="#B83236" transform="translate(755,191)"/>
<path d="M0 0 C0.99 0.33 1.98 0.66 3 1 C-0.61251516 5.56048012 -3.98797445 9.01665146 -9 12 C-9.33 11.01 -9.66 10.02 -10 9 C-8.68 9 -7.36 9 -6 9 C-6 7.68 -6 6.36 -6 5 C-4.68 5 -3.36 5 -2 5 C-1.855625 4.360625 -1.71125 3.72125 -1.5625 3.0625 C-1 1 -1 1 0 0 Z " fill="#BA3239" transform="translate(829,183)"/>
<path d="M0 0 C-0.1875 1.875 -0.1875 1.875 -1 4 C-3.4375 5.1875 -3.4375 5.1875 -6 6 C-6.99 6.495 -6.99 6.495 -8 7 C-8.66 6.67 -9.32 6.34 -10 6 C-10 4.35 -10 2.7 -10 1 C-9.01 1.33 -8.02 1.66 -7 2 C-6.67 1.34 -6.34 0.68 -6 0 C-3 -1 -3 -1 0 0 Z " fill="#D42D30" transform="translate(924,122)"/>
<path d="M0 0 C0.99 0.33 1.98 0.66 3 1 C1.55049545 4.7910119 -0.15172566 8.3874638 -2 12 C-2.66 12 -3.32 12 -4 12 C-3.28571429 3.42857143 -3.28571429 3.42857143 0 0 Z " fill="#BF2E38" transform="translate(699,105)"/>
<path d="M0 0 C1.32 0.33 2.64 0.66 4 1 C3.01 1.33 2.02 1.66 1 2 C1 2.66 1 3.32 1 4 C0.34 4 -0.32 4 -1 4 C-1 4.99 -1 5.98 -1 7 C-2.65 7.66 -4.3 8.32 -6 9 C-6.99 8.01 -7.98 7.02 -9 6 C-8.01 6 -7.02 6 -6 6 C-6 5.01 -6 4.02 -6 3 C-4.68 3.33 -3.36 3.66 -2 4 C-1.34 2.68 -0.68 1.36 0 0 Z " fill="#D42E2E" transform="translate(716,86)"/>
<path d="M0 0 C4.16943993 0.93599672 5.58410733 1.37616099 8 5 C7.625 7.1875 7.625 7.1875 7 9 C6.34 7.35 5.68 5.7 5 4 C4.401875 4.165 3.80375 4.33 3.1875 4.5 C1 5 1 5 -2 5 C-2.33 4.01 -2.66 3.02 -3 2 C-2.01 1.34 -1.02 0.68 0 0 Z " fill="#AF282B" transform="translate(285,120)"/>
<path d="M0 0 C0.99 0.495 0.99 0.495 2 1 C2.66796875 3.328125 2.66796875 3.328125 3.1875 6.25 C3.36667969 7.20390625 3.54585937 8.1578125 3.73046875 9.140625 C4.00246348 12.02613428 3.71838498 14.20797895 3 17 C2.67 17 2.34 17 2 17 C1.67 14.36 1.34 11.72 1 9 C0.67 9 0.34 9 0 9 C0 6.03 0 3.06 0 0 Z " fill="#273241" transform="translate(520,127)"/>
<path d="M0 0 C0.66 0 1.32 0 2 0 C1.27623543 3.49403583 -0.06285206 6.51998905 -1.5625 9.75 C-2.01753906 10.73484375 -2.47257813 11.7196875 -2.94140625 12.734375 C-3.29074219 13.48203125 -3.64007812 14.2296875 -4 15 C-4.33 15 -4.66 15 -5 15 C-5.58058501 9.31026692 -4.55327618 6.66878104 -1.09375 2.3828125 C0.10339373 1.16312784 0.10339373 1.16312784 0 0 Z " fill="#2E2721" transform="translate(632,79)"/>
<path d="M0 0 C0.66 0.66 1.32 1.32 2 2 C1.70764733 4.33882138 1.37400786 6.67284 1 9 C1.33 9.66 1.66 10.32 2 11 C1.01 11.33 0.02 11.66 -1 12 C-3.51969981 4.29268293 -3.51969981 4.29268293 -2 1 C-1.34 0.67 -0.68 0.34 0 0 Z " fill="#FBDAD7" transform="translate(213,121)"/>
<path d="M0 0 C0.33 0 0.66 0 1 0 C0.54775239 5.91492272 -0.1582605 11.35199888 -2 17 C-2.33 17 -2.66 17 -3 17 C-3.40368295 10.54107286 -2.5915262 5.93891422 0 0 Z " fill="#D34849" transform="translate(184,83)"/>
<path d="M0 0 C3.375 -0.125 3.375 -0.125 7 0 C7.66 0.66 8.32 1.32 9 2 C8.625 4.625 8.625 4.625 8 7 C6.68 7.33 5.36 7.66 4 8 C4.33 7.01 4.66 6.02 5 5 C5.66 5 6.32 5 7 5 C7 4.34 7 3.68 7 3 C6.34 3 5.68 3 5 3 C5 2.34 5 1.68 5 1 C3.35 1 1.7 1 0 1 C0 0.67 0 0.34 0 0 Z " fill="#507D4D" transform="translate(173,28)"/>
<path d="M0 0 C0.99 0 1.98 0 3 0 C2.71617054 1.75128818 2.42260471 3.50100003 2.125 5.25 C1.96257812 6.22453125 1.80015625 7.1990625 1.6328125 8.203125 C1.05144152 10.77264117 0.29159735 12.72071056 -1 15 C-1.02685412 12.68756208 -1.04632841 10.3750373 -1.0625 8.0625 C-1.07410156 6.77472656 -1.08570312 5.48695313 -1.09765625 4.16015625 C-1 1 -1 1 0 0 Z " fill="#BC3738" transform="translate(129,143)"/>
<path d="M0 0 C-3.465 2.97 -3.465 2.97 -7 6 C-7 5.01 -7 4.02 -7 3 C-7.66 3 -8.32 3 -9 3 C-9 2.34 -9 1.68 -9 1 C-2.25 -1.125 -2.25 -1.125 0 0 Z " fill="#BF2E36" transform="translate(709,100)"/>
<path d="M0 0 C4.875 4.5 4.875 4.5 6 9 C3.03 9 0.06 9 -3 9 C-3 8.67 -3 8.34 -3 8 C-1.35 8 0.3 8 2 8 C1.34 5.36 0.68 2.72 0 0 Z " fill="#69AA68" transform="translate(176,55)"/>
<path d="M0 0 C4.37734716 -0.37520119 6.33077135 0.72857274 10 3 C12.31691454 3.72166191 14.64848923 4.40059529 17 5 C13.2676525 6.38857478 11.02409791 5.57927184 7.375 4.1875 C6.41335938 3.83042969 5.45171875 3.47335938 4.4609375 3.10546875 C2 2 2 2 0 0 Z " fill="#B63A3A" transform="translate(710,191)"/>
<path d="M0 0 C0.99 0.33 1.98 0.66 3 1 C3 4.3 3 7.6 3 11 C-0.08866833 7.91133167 -0.58715856 7.12841437 -1 3 C-0.67 2.01 -0.34 1.02 0 0 Z " fill="#C03A32" transform="translate(782,177)"/>
<path d="M0 0 C1.79275866 3.11910856 2.34290718 5.67682428 2.625 9.25 C2.69976562 10.14203125 2.77453125 11.0340625 2.8515625 11.953125 C2.90054688 12.62859375 2.94953125 13.3040625 3 14 C2.34 14 1.68 14 1 14 C0.67 12.02 0.34 10.04 0 8 C-0.66 8 -1.32 8 -2 8 C-1.34 5.36 -0.68 2.72 0 0 Z " fill="#BA3B38" transform="translate(108,104)"/>
<path d="M0 0 C0 2.64 0 5.28 0 8 C-0.33 6.68 -0.66 5.36 -1 4 C-3.31 3.67 -5.62 3.34 -8 3 C-5.36657694 0.36657694 -3.69534435 0 0 0 Z " fill="#B73237" transform="translate(766,184)"/>
<path d="M0 0 C2.79872437 2.52788007 4.45773019 4.20411134 5 8 C3.35 8 1.7 8 0 8 C-0.98120464 4.94736336 -0.98120464 3.05263664 0 0 Z " fill="#242935" transform="translate(516,119)"/>
<path d="M0 0 C0.66 0.99 1.32 1.98 2 3 C1.01 4.485 1.01 4.485 0 6 C-0.99 6 -1.98 6 -3 6 C-3.33 7.32 -3.66 8.64 -4 10 C-4.66 9.67 -5.32 9.34 -6 9 C-4.02 6.03 -2.04 3.06 0 0 Z " fill="#BA3E37" transform="translate(913,123)"/>
<path d="M0 0 C0.99 0.33 1.98 0.66 3 1 C2.67 2.32 2.34 3.64 2 5 C-0.31 5.33 -2.62 5.66 -5 6 C-4.01 5.34 -3.02 4.68 -2 4 C-0.80767387 1.94996045 -0.80767387 1.94996045 0 0 Z " fill="#C13B40" transform="translate(120,178)"/>
<path d="M0 0 C0.66 0 1.32 0 2 0 C2.33730842 1.43657245 2.66969591 2.87430093 3 4.3125 C3.185625 5.11300781 3.37125 5.91351563 3.5625 6.73828125 C4 9 4 9 4 12 C-1.05908096 5.92560175 -1.05908096 5.92560175 -0.8125 2.0625 C-0.544375 1.381875 -0.27625 0.70125 0 0 Z " fill="#4B3C2A" transform="translate(342,165)"/>
<path d="M0 0 C0.95651196 2.58258228 1.03620881 3.8650399 0.3125 6.5625 C-1.12035293 9.22351258 -2.47085828 10.39821025 -5 12 C-3.68938409 7.76570244 -2.05643741 3.92592596 0 0 Z " fill="#FCCECF" transform="translate(168,137)"/>
<path d="M0 0 C2 1 2 1 2.88671875 3.21484375 C3.15097656 4.11332031 3.41523437 5.01179687 3.6875 5.9375 C3.95949219 6.83339844 4.23148438 7.72929687 4.51171875 8.65234375 C5 11 5 11 4 13 C0.88303339 8.66335081 0.44033187 5.19591612 0 0 Z " fill="#C33C2E" transform="translate(688,162)"/>
<path d="M0 0 C0.66 0 1.32 0 2 0 C1.44894091 3.9492568 0.61064629 7.34920174 -1 11 C-1.66 9.68 -2.32 8.36 -3 7 C-2.34 7 -1.68 7 -1 7 C-1.020625 6.030625 -1.04125 5.06125 -1.0625 4.0625 C-1 1 -1 1 0 0 Z " fill="#D54849" transform="translate(174,117)"/>
<path d="M0 0 C1.4540625 0.0309375 1.4540625 0.0309375 2.9375 0.0625 C0.32235683 2.18288635 -2.25887616 4.19341744 -5.0625 6.0625 C-5.3925 5.0725 -5.7225 4.0825 -6.0625 3.0625 C-3.0625 0.0625 -3.0625 0.0625 0 0 Z " fill="#BC3239" transform="translate(714.0625,92.9375)"/>
<path d="M0 0 C0.33 0.66 0.66 1.32 1 2 C1.66 2.33 2.32 2.66 3 3 C2.34 4.32 1.68 5.64 1 7 C-0.9375 6.6875 -0.9375 6.6875 -3 6 C-3.33 5.01 -3.66 4.02 -4 3 C-2.68 3 -1.36 3 0 3 C0 2.01 0 1.02 0 0 Z " fill="#D22B28" transform="translate(748,188)"/>
<path d="M0 0 C0.598125 0.763125 1.19625 1.52625 1.8125 2.3125 C3.46959332 4.3483575 5.10297674 6.1978279 7 8 C5.02 8.99 5.02 8.99 3 10 C3 9.01 3 8.02 3 7 C2.01 6.34 1.02 5.68 0 5 C-0.1875 2.375 -0.1875 2.375 0 0 Z " fill="#B43036" transform="translate(790,180)"/>
<path d="M0 0 C0.66 0 1.32 0 2 0 C2.33 2.64 2.66 5.28 3 8 C2.01 7.67 1.02 7.34 0 7 C-1.125 2.25 -1.125 2.25 0 0 Z " fill="#BC2D3F" transform="translate(787,172)"/>
<path d="M0 0 C0.763125 0.20625 1.52625 0.4125 2.3125 0.625 C-0.30691217 2.37127478 -1.72574877 3.01222388 -4.6875 3.625 C-4.6875 4.285 -4.6875 4.945 -4.6875 5.625 C-5.3475 5.295 -6.0075 4.965 -6.6875 4.625 C-5.39900677 0.7595203 -4.17039106 -0.58191503 0 0 Z " fill="#D22D2C" transform="translate(790.6875,158.375)"/>
<path d="M0 0 C0.99 1.32 1.98 2.64 3 4 C2.01 4.33 1.02 4.66 0 5 C-0.33 6.98 -0.66 8.96 -1 11 C-1.66 10.67 -2.32 10.34 -3 10 C-2.01 6.7 -1.02 3.4 0 0 Z " fill="#C04446" transform="translate(81,98)"/>
<path d="M0 0 C-2.22825644 2.22825644 -3.65761628 2.69239369 -6.625 3.625 C-7.44226563 3.88539062 -8.25953125 4.14578125 -9.1015625 4.4140625 C-9.72804687 4.60742188 -10.35453125 4.80078125 -11 5 C-4.83050847 -1.61016949 -4.83050847 -1.61016949 0 0 Z " fill="#4D814D" transform="translate(174,30)"/>
<path d="M0 0 C1.98 0.495 1.98 0.495 4 1 C3.34 2.65 2.68 4.3 2 6 C1.01 6 0.02 6 -1 6 C-0.67 4.02 -0.34 2.04 0 0 Z " fill="#C92D26" transform="translate(790,118)"/>
<path d="M0 0 C1.98 1.65 3.96 3.3 6 5 C4.68 5.33 3.36 5.66 2 6 C0.68 4.35 -0.64 2.7 -2 1 C-1.34 0.67 -0.68 0.34 0 0 Z " fill="#B82D33" transform="translate(917,179)"/>
<path d="M0 0 C2.14720899 2.14720899 2.5434221 3.07790143 3 6 C2.67 6.66 2.34 7.32 2 8 C0.68 7.34 -0.64 6.68 -2 6 C-1.34 4.02 -0.68 2.04 0 0 Z " fill="#FCDCDC" transform="translate(124,175)"/>
<path d="M0 0 C0.66 0.33 1.32 0.66 2 1 C-0.97 5.95 -0.97 5.95 -4 11 C-5 8 -5 8 -3.6875 4.9375 C-2 2 -2 2 0 0 Z " fill="#AA2F3A" transform="translate(919,126)"/>
<path d="M0 0 C2.046875 3.71875 2.046875 3.71875 1.625 6.25 C1.41875 6.8275 1.2125 7.405 1 8 C0.34 8 -0.32 8 -1 8 C-1.33 9.32 -1.66 10.64 -2 12 C-3.40907283 9.18185434 -2.50872691 7.82722796 -1.5625 4.875 C-1.27503906 3.96492188 -0.98757812 3.05484375 -0.69140625 2.1171875 C-0.46324219 1.41851562 -0.23507813 0.71984375 0 0 Z " fill="#F8BBBA" transform="translate(181,100)"/>
<path d="M0 0 C1 2 1 2 0.875 3.9375 C-0.3582873 6.84453436 -2.25745971 7.59356908 -5 9 C-3.7508258 5.54074837 -2.32472205 2.85306797 0 0 Z " fill="#30261C" transform="translate(350,101)"/>
<path d="M0 0 C2 1 2 1 3.1875 3.3125 C4.03624754 6.11989571 3.99928333 7.301935 3 10 C0.59185923 6.48812804 -0.36629408 4.27343092 0 0 Z " fill="#AE3041" transform="translate(837,123)"/>
<path d="M0 0 C0.66 0 1.32 0 2 0 C0.87548273 2.9719385 -0.22293791 5.33440687 -2 8 C-3 5 -3 5 -1.6875 2.3125 C-1.130625 1.549375 -0.57375 0.78625 0 0 Z " fill="#E7F1DC" transform="translate(143,57)"/>
<path d="M0 0 C2.31 0.66 4.62 1.32 7 2 C7 3.65 7 5.3 7 7 C5.83040013 6.02433888 4.66438823 5.044375 3.5 4.0625 C2.8503125 3.51722656 2.200625 2.97195312 1.53125 2.41015625 C1.0259375 1.94480469 0.520625 1.47945312 0 1 C0 0.67 0 0.34 0 0 Z " fill="#E7EED8" transform="translate(173,52)"/>
<path d="M0 0 C2.31 0.66 4.62 1.32 7 2 C7 2.99 7 3.98 7 5 C3.34683329 3.75023244 2.21934164 3.32901247 0 0 Z " fill="#BC3A31" transform="translate(703,186)"/>
<path d="M0 0 C1.32 0 2.64 0 4 0 C4.66 2.64 5.32 5.28 6 8 C1.125 3.375 1.125 3.375 0 0 Z " fill="#B73B35" transform="translate(908,180)"/>
<path d="M0 0 C0.66 0.33 1.32 0.66 2 1 C2.625 3.0625 2.625 3.0625 3 5 C2.01 5 1.02 5 0 5 C-0.33 4.01 -0.66 3.02 -1 2 C-1.66 1.67 -2.32 1.34 -3 1 C-2.01 0.67 -1.02 0.34 0 0 Z " fill="#CD2929" transform="translate(830,178)"/>
<path d="M0 0 C0.66 0 1.32 0 2 0 C1.34 2.97 0.68 5.94 0 9 C-2 5 -2 5 -1.125 2.25 C-0.75375 1.5075 -0.3825 0.765 0 0 Z " fill="#F7C5C7" transform="translate(126,111)"/>
<path d="M0 0 C3.125 -0.1875 3.125 -0.1875 6 0 C6 0.66 6 1.32 6 2 C3.36 2.33 0.72 2.66 -2 3 C-1.34 2.01 -0.68 1.02 0 0 Z " fill="#B43439" transform="translate(94,71)"/>
</svg>
